<svg width="1216" height="48" viewBox="0 0 1216 48" fill="none" xmlns="http://www.w3.org/2000/svg">
<path fill-rule="evenodd" clip-rule="evenodd" d="M22 46C34.1503 46 44 36.1503 44 24C44 11.8497 34.1503 2 22 2C9.84971 2 0 11.8497 0 24C0 36.1503 9.84971 46 22 46ZM28.8632 12.2485C29.1973 11.0619 28.0457 10.3601 26.994 11.1094L12.3124 21.5685C11.1718 22.3811 11.3512 24 12.5819 24H16.448V23.9701H23.9828L17.8433 26.1363L15.1368 35.7515C14.8027 36.9382 15.9542 37.6399 17.006 36.8906L31.6876 26.4315C32.8282 25.619 32.6487 24 31.4181 24H25.5553L28.8632 12.2485Z" fill="#155EEF"/>
<path d="M55.38 33.9093V30.4293H58.14V16.3893H55.38V12.9093H66.18C67.46 12.9093 68.57 13.1293 69.51 13.5693C70.47 13.9893 71.21 14.5993 71.73 15.3993C72.27 16.1793 72.54 17.1193 72.54 18.2193V18.5193C72.54 19.4793 72.36 20.2693 72 20.8893C71.64 21.4893 71.21 21.9593 70.71 22.2993C70.23 22.6193 69.77 22.8493 69.33 22.9893V23.5293C69.77 23.6493 70.25 23.8793 70.77 24.2193C71.29 24.5393 71.73 25.0093 72.09 25.6293C72.47 26.2493 72.66 27.0593 72.66 28.0593V28.3593C72.66 29.5193 72.39 30.5193 71.85 31.3593C71.31 32.1793 70.56 32.8093 69.6 33.2493C68.66 33.6893 67.56 33.9093 66.3 33.9093H55.38ZM62.1 30.3093H65.82C66.68 30.3093 67.37 30.0993 67.89 29.6793C68.43 29.2593 68.7 28.6593 68.7 27.8793V27.5793C68.7 26.7993 68.44 26.1993 67.92 25.7793C67.4 25.3593 66.7 25.1493 65.82 25.1493H62.1V30.3093ZM62.1 21.5493H65.76C66.58 21.5493 67.25 21.3393 67.77 20.9193C68.31 20.4993 68.58 19.9193 68.58 19.1793V18.8793C68.58 18.1193 68.32 17.5393 67.8 17.1393C67.28 16.7193 66.6 16.5093 65.76 16.5093H62.1V21.5493Z" fill="#101828"/>
<path d="M81.6019 34.3293C80.1219 34.3293 78.7919 34.0293 77.6119 33.4293C76.4319 32.8293 75.5019 31.9593 74.8219 30.8193C74.1419 29.6793 73.8019 28.3093 73.8019 26.7093V26.2293C73.8019 24.6293 74.1419 23.2593 74.8219 22.1193C75.5019 20.9793 76.4319 20.1093 77.6119 19.5093C78.7919 18.9093 80.1219 18.6093 81.6019 18.6093C83.0819 18.6093 84.4119 18.9093 85.5919 19.5093C86.7719 20.1093 87.7019 20.9793 88.3819 22.1193C89.0619 23.2593 89.4019 24.6293 89.4019 26.2293V26.7093C89.4019 28.3093 89.0619 29.6793 88.3819 30.8193C87.7019 31.9593 86.7719 32.8293 85.5919 33.4293C84.4119 34.0293 83.0819 34.3293 81.6019 34.3293ZM81.6019 30.9693C82.7619 30.9693 83.7219 30.5993 84.4819 29.8593C85.2419 29.0993 85.6219 28.0193 85.6219 26.6193V26.3193C85.6219 24.9193 85.2419 23.8493 84.4819 23.1093C83.7419 22.3493 82.7819 21.9693 81.6019 21.9693C80.4419 21.9693 79.4819 22.3493 78.7219 23.1093C77.9619 23.8493 77.5819 24.9193 77.5819 26.3193V26.6193C77.5819 28.0193 77.9619 29.0993 78.7219 29.8593C79.4819 30.5993 80.4419 30.9693 81.6019 30.9693Z" fill="#101828"/>
<path d="M91.391 33.9093V12.9093H95.171V33.9093H91.391Z" fill="#101828"/>
<path d="M103.56 33.9093C102.58 33.9093 101.78 33.6093 101.16 33.0093C100.56 32.3893 100.26 31.5693 100.26 30.5493V22.1493H96.5398V19.0293H100.26V14.4093H104.04V19.0293H108.12V22.1493H104.04V29.8893C104.04 30.4893 104.32 30.7893 104.88 30.7893H107.76V33.9093H103.56Z" fill="#101828"/>
<path d="M116.221 34.3293C114.281 34.3293 112.691 33.9093 111.451 33.0693C110.211 32.2293 109.461 31.0293 109.201 29.4693L112.681 28.5693C112.821 29.2693 113.051 29.8193 113.371 30.2193C113.711 30.6193 114.121 30.9093 114.601 31.0893C115.101 31.2493 115.641 31.3293 116.221 31.3293C117.101 31.3293 117.751 31.1793 118.171 30.8793C118.591 30.5593 118.801 30.1693 118.801 29.7093C118.801 29.2493 118.601 28.8993 118.201 28.6593C117.801 28.3993 117.161 28.1893 116.281 28.0293L115.441 27.8793C114.401 27.6793 113.451 27.4093 112.591 27.0693C111.731 26.7093 111.041 26.2193 110.521 25.5993C110.001 24.9793 109.741 24.1793 109.741 23.1993C109.741 21.7193 110.281 20.5893 111.361 19.8093C112.441 19.0093 113.861 18.6093 115.621 18.6093C117.281 18.6093 118.661 18.9793 119.761 19.7193C120.861 20.4593 121.581 21.4293 121.921 22.6293L118.411 23.7093C118.251 22.9493 117.921 22.4093 117.421 22.0893C116.941 21.7693 116.341 21.6093 115.621 21.6093C114.901 21.6093 114.351 21.7393 113.971 21.9993C113.591 22.2393 113.401 22.5793 113.401 23.0193C113.401 23.4993 113.601 23.8593 114.001 24.0993C114.401 24.3193 114.941 24.4893 115.621 24.6093L116.461 24.7593C117.581 24.9593 118.591 25.2293 119.491 25.5693C120.411 25.8893 121.131 26.3593 121.651 26.9793C122.191 27.5793 122.461 28.3993 122.461 29.4393C122.461 30.9993 121.891 32.2093 120.751 33.0693C119.631 33.9093 118.121 34.3293 116.221 34.3293Z" fill="#101828"/>
<path d="M124.274 33.9093V12.9093H128.054V20.8593H128.594C128.754 20.5393 129.004 20.2193 129.344 19.8993C129.684 19.5793 130.134 19.3193 130.694 19.1193C131.274 18.8993 132.004 18.7893 132.884 18.7893C134.044 18.7893 135.054 19.0593 135.914 19.5993C136.794 20.1193 137.474 20.8493 137.954 21.7893C138.434 22.7093 138.674 23.7893 138.674 25.0293V33.9093H134.894V25.3293C134.894 24.2093 134.614 23.3693 134.054 22.8093C133.514 22.2493 132.734 21.9693 131.714 21.9693C130.554 21.9693 129.654 22.3593 129.014 23.1393C128.374 23.8993 128.054 24.9693 128.054 26.3493V33.9093H124.274Z" fill="#101828"/>
<path d="M141.26 33.9093V19.0293H145.04V33.9093H141.26ZM143.15 17.2893C142.47 17.2893 141.89 17.0693 141.41 16.6293C140.95 16.1893 140.72 15.6093 140.72 14.8893C140.72 14.1693 140.95 13.5893 141.41 13.1493C141.89 12.7093 142.47 12.4893 143.15 12.4893C143.85 12.4893 144.43 12.7093 144.89 13.1493C145.35 13.5893 145.58 14.1693 145.58 14.8893C145.58 15.6093 145.35 16.1893 144.89 16.6293C144.43 17.0693 143.85 17.2893 143.15 17.2893Z" fill="#101828"/>
<path d="M150.189 33.9093V22.1493H146.409V19.0293H150.189V16.2693C150.189 15.2493 150.489 14.4393 151.089 13.8393C151.709 13.2193 152.509 12.9093 153.489 12.9093H157.389V16.0293H154.809C154.249 16.0293 153.969 16.3293 153.969 16.9293V19.0293H157.869V22.1493H153.969V33.9093H150.189Z" fill="#101828"/>
<path d="M164.702 33.9093C163.722 33.9093 162.922 33.6093 162.302 33.0093C161.702 32.3893 161.402 31.5693 161.402 30.5493V22.1493H157.682V19.0293H161.402V14.4093H165.182V19.0293H169.262V22.1493H165.182V29.8893C165.182 30.4893 165.462 30.7893 166.022 30.7893H168.902V33.9093H164.702Z" fill="#101828"/>
<path fill-rule="evenodd" clip-rule="evenodd" d="M216.966 3.44802C216.46 3.34415 215.94 3.34415 215.435 3.44802C214.851 3.56809 214.329 3.86035 213.914 4.0927L213.801 4.15587L199.742 11.9667C199.703 11.9883 199.663 12.0103 199.622 12.033C199.182 12.2748 198.63 12.5789 198.206 13.0391C197.84 13.4369 197.562 13.9084 197.393 14.422C197.196 15.0161 197.199 15.6465 197.2 16.1478C197.201 16.1947 197.201 16.2404 197.201 16.2849V31.7068C197.201 31.7513 197.201 31.797 197.2 31.8438C197.199 32.3452 197.196 32.9755 197.393 33.5697C197.562 34.0833 197.84 34.5548 198.206 34.9526C198.63 35.4127 199.182 35.7168 199.622 35.9587C199.663 35.9813 199.703 36.0034 199.742 36.025L213.801 43.8358L213.914 43.899C214.329 44.1313 214.851 44.4236 215.435 44.5436C215.94 44.6475 216.46 44.6475 216.966 44.5436C217.549 44.4236 218.071 44.1313 218.486 43.899L218.599 43.8358L232.658 36.025C232.676 36.0154 232.693 36.0058 232.711 35.9961C232.733 35.9838 232.756 35.9713 232.778 35.9587C233.218 35.7169 233.77 35.4127 234.194 34.9526C234.56 34.5548 234.838 34.0833 235.007 33.5697C235.204 32.9755 235.201 32.3452 235.2 31.8438C235.199 31.797 235.199 31.7513 235.199 31.7068V16.2849C235.199 16.2404 235.199 16.1947 235.2 16.1478C235.201 15.6465 235.204 15.0161 235.007 14.422C234.838 13.9084 234.56 13.4369 234.194 13.0391C233.77 12.5789 233.218 12.2748 232.778 12.0329L232.777 12.0321C232.736 12.0098 232.697 11.988 232.658 11.9667L218.599 4.15586L218.486 4.09269C218.071 3.86035 217.549 3.56809 216.966 3.44802ZM215.646 7.47754C215.934 7.31759 216.081 7.23676 216.191 7.18388L216.2 7.17953L216.209 7.18388C216.319 7.23676 216.466 7.31758 216.754 7.47754L229.387 14.4961L216.2 21.8223L203.013 14.4962L215.646 7.47754ZM201.001 17.7251L214.3 25.1137L214.3 39.7662L201.587 32.7033C201.283 32.5345 201.128 32.4474 201.019 32.378L201.01 32.3721L201.009 32.3612C201.001 32.2324 201.001 32.0545 201.001 31.7068V17.7251Z" fill="#101828"/>
<path d="M252.491 30.3452H258.539V33.9092H247.874V14.9552H252.491V30.3452Z" fill="#101828"/>
<path d="M262.793 17.2772C261.983 17.2772 261.317 17.0432 260.795 16.5752C260.291 16.0892 260.039 15.4952 260.039 14.7932C260.039 14.0732 260.291 13.4792 260.795 13.0112C261.317 12.5252 261.983 12.2822 262.793 12.2822C263.585 12.2822 264.233 12.5252 264.737 13.0112C265.259 13.4792 265.52 14.0732 265.52 14.7932C265.52 15.4952 265.259 16.0892 264.737 16.5752C264.233 17.0432 263.585 17.2772 262.793 17.2772ZM265.088 18.8432V33.9092H260.471V18.8432H265.088Z" fill="#101828"/>
<path d="M273.888 18.6272C274.95 18.6272 275.877 18.8432 276.669 19.2752C277.479 19.7072 278.1 20.2742 278.532 20.9762V18.8432H283.149V33.8822C283.149 35.2682 282.87 36.5192 282.312 37.6352C281.772 38.7692 280.935 39.6692 279.801 40.3352C278.685 41.0012 277.29 41.3342 275.616 41.3342C273.384 41.3342 271.575 40.8032 270.189 39.7412C268.803 38.6972 268.011 37.2752 267.813 35.4752H272.376C272.52 36.0512 272.862 36.5012 273.402 36.8252C273.942 37.1672 274.608 37.3382 275.4 37.3382C276.354 37.3382 277.11 37.0592 277.668 36.5012C278.244 35.9612 278.532 35.0882 278.532 33.8822V31.7492C278.082 32.4512 277.461 33.0272 276.669 33.4772C275.877 33.9092 274.95 34.1252 273.888 34.1252C272.646 34.1252 271.521 33.8102 270.513 33.1802C269.505 32.5322 268.704 31.6232 268.11 30.4532C267.534 29.2652 267.246 27.8972 267.246 26.3492C267.246 24.8012 267.534 23.4422 268.11 22.2722C268.704 21.1022 269.505 20.2022 270.513 19.5722C271.521 18.9422 272.646 18.6272 273.888 18.6272ZM278.532 26.3762C278.532 25.2242 278.208 24.3152 277.56 23.6492C276.93 22.9832 276.156 22.6502 275.238 22.6502C274.32 22.6502 273.537 22.9832 272.889 23.6492C272.259 24.2972 271.944 25.1972 271.944 26.3492C271.944 27.5012 272.259 28.4192 272.889 29.1032C273.537 29.7692 274.32 30.1022 275.238 30.1022C276.156 30.1022 276.93 29.7692 277.56 29.1032C278.208 28.4372 278.532 27.5282 278.532 26.3762Z" fill="#101828"/>
<path d="M295.48 18.6812C297.208 18.6812 298.594 19.2572 299.638 20.4092C300.682 21.5432 301.204 23.1092 301.204 25.1072V33.9092H296.614V25.7282C296.614 24.7202 296.353 23.9372 295.831 23.3792C295.309 22.8212 294.607 22.5422 293.725 22.5422C292.843 22.5422 292.141 22.8212 291.619 23.3792C291.097 23.9372 290.836 24.7202 290.836 25.7282V33.9092H286.219V13.9292H290.836V20.8682C291.304 20.2022 291.943 19.6712 292.753 19.2752C293.563 18.8792 294.472 18.6812 295.48 18.6812Z" fill="#101828"/>
<path d="M312.54 29.9942V33.9092H310.191C308.517 33.9092 307.212 33.5042 306.276 32.6942C305.34 31.8662 304.872 30.5252 304.872 28.6712V22.6772H303.036V18.8432H304.872V15.1712H309.489V18.8432H312.513V22.6772H309.489V28.7252C309.489 29.1752 309.597 29.4992 309.813 29.6972C310.029 29.8952 310.389 29.9942 310.893 29.9942H312.54Z" fill="#101828"/>
<path d="M319.458 20.9762C319.89 20.2742 320.511 19.7072 321.321 19.2752C322.131 18.8432 323.058 18.6272 324.102 18.6272C325.344 18.6272 326.469 18.9422 327.477 19.5722C328.485 20.2022 329.277 21.1022 329.853 22.2722C330.447 23.4422 330.744 24.8012 330.744 26.3492C330.744 27.8972 330.447 29.2652 329.853 30.4532C329.277 31.6232 328.485 32.5322 327.477 33.1802C326.469 33.8102 325.344 34.1252 324.102 34.1252C323.04 34.1252 322.113 33.9182 321.321 33.5042C320.529 33.0722 319.908 32.5052 319.458 31.8032V33.9092H314.841V13.9292H319.458V20.9762ZM326.046 26.3492C326.046 25.1972 325.722 24.2972 325.074 23.6492C324.444 22.9832 323.661 22.6502 322.725 22.6502C321.807 22.6502 321.024 22.9832 320.376 23.6492C319.746 24.3152 319.431 25.2242 319.431 26.3762C319.431 27.5282 319.746 28.4372 320.376 29.1032C321.024 29.7692 321.807 30.1022 322.725 30.1022C323.643 30.1022 324.426 29.7692 325.074 29.1032C325.722 28.4192 326.046 27.5012 326.046 26.3492Z" fill="#101828"/>
<path d="M339.755 34.1252C338.279 34.1252 336.947 33.8102 335.759 33.1802C334.589 32.5502 333.662 31.6502 332.978 30.4802C332.312 29.3102 331.979 27.9422 331.979 26.3762C331.979 24.8282 332.321 23.4692 333.005 22.2992C333.689 21.1112 334.625 20.2022 335.813 19.5722C337.001 18.9422 338.333 18.6272 339.809 18.6272C341.285 18.6272 342.617 18.9422 343.805 19.5722C344.993 20.2022 345.929 21.1112 346.613 22.2992C347.297 23.4692 347.639 24.8282 347.639 26.3762C347.639 27.9242 347.288 29.2922 346.586 30.4802C345.902 31.6502 344.957 32.5502 343.751 33.1802C342.563 33.8102 341.231 34.1252 339.755 34.1252ZM339.755 30.1292C340.637 30.1292 341.384 29.8052 341.996 29.1572C342.626 28.5092 342.941 27.5822 342.941 26.3762C342.941 25.1702 342.635 24.2432 342.023 23.5952C341.429 22.9472 340.691 22.6232 339.809 22.6232C338.909 22.6232 338.162 22.9472 337.568 23.5952C336.974 24.2252 336.677 25.1522 336.677 26.3762C336.677 27.5822 336.965 28.5092 337.541 29.1572C338.135 29.8052 338.873 30.1292 339.755 30.1292Z" fill="#101828"/>
<path d="M358.728 33.9092L355.839 29.7242L353.409 33.9092H348.414L353.382 26.2142L348.279 18.8432H353.463L356.352 23.0012L358.782 18.8432H363.777L358.728 26.4302L363.912 33.9092H358.728Z" fill="#101828"/>
<path d="M427.707 11.1631C427.274 10.7309 426.842 10.2986 426.41 9.86642C425.113 8.48331 423.73 7.10021 422.001 6.23577C420.013 5.19844 417.852 5.45777 415.691 5.45777C412.406 5.45777 404.194 5.45777 399.353 5.45777L402.638 9.86642C408.602 9.86642 417.938 9.86642 422.261 9.86642C424.076 9.86642 425.632 10.2122 427.101 11.1631C427.361 11.2495 427.62 11.2495 427.707 11.1631Z" fill="#66C61C"/>
<path d="M431.337 18.2517C430.905 17.8195 430.473 17.3873 430.041 16.955C428.744 15.5719 427.361 14.1888 425.632 13.3244C423.644 12.2871 421.483 12.5464 419.321 12.5464C416.469 12.5464 409.64 12.5464 404.799 12.5464L408.084 16.955C413.962 16.955 422.001 16.955 425.978 16.955C427.793 16.955 429.349 17.3008 430.819 18.2517C430.991 18.3381 431.164 18.3381 431.337 18.2517Z" fill="#4CA30D"/>
<path d="M435.4 25.167C434.968 24.7348 434.536 24.3025 434.103 23.8703C432.807 22.4872 431.424 21.1041 429.695 20.2397C427.707 19.2023 425.545 19.4617 423.384 19.4617C420.705 19.4617 414.826 19.4617 410.072 19.4617L413.357 23.8703C419.062 23.8703 426.323 23.8703 429.954 23.8703C431.769 23.8703 433.325 24.2161 434.795 25.167C435.054 25.2534 435.227 25.3399 435.4 25.167Z" fill="#3B7C0F"/>
<path d="M399.007 36.8368C399.439 37.269 399.872 37.7012 400.304 38.1335C401.6 39.5166 402.984 40.8997 404.712 41.7641C406.701 42.8014 408.862 42.5421 411.023 42.5421H427.361L424.076 38.1335C418.111 38.1335 408.775 38.1335 404.453 38.1335C402.638 38.1335 401.082 37.7877 399.612 36.8368C399.353 36.7504 399.18 36.7504 399.007 36.8368Z" fill="#66C61C"/>
<path d="M395.376 29.7487C395.809 30.1809 396.241 30.6131 396.673 31.0453C397.97 32.4284 399.353 33.8116 401.082 34.676C403.07 35.7133 405.231 35.454 407.392 35.454H421.915L418.63 31.0453C412.752 31.0453 404.712 31.0453 400.736 31.0453C398.921 31.0453 397.365 30.6996 395.895 29.7487C395.722 29.6622 395.549 29.6622 395.376 29.7487Z" fill="#4CA30D"/>
<path d="M391.4 22.7465C391.832 23.1787 392.264 23.6109 392.697 24.0431C393.993 25.4262 395.376 26.8094 397.105 27.6738C399.094 28.7111 401.255 28.4518 403.416 28.4518H416.728L413.443 24.0431C407.738 24.0431 400.477 24.0431 396.846 24.0431C395.031 24.0431 393.475 23.6974 392.005 22.7465C391.746 22.66 391.573 22.66 391.4 22.7465Z" fill="#3B7C0F"/>
<path d="M445.332 14.0081V34.0001H449.728V25.7401H458.1V22.3241H449.728V17.7041H459.388V14.0081H445.332Z" fill="#101828"/>
<path d="M470.414 25.2081H463.946C463.964 24.9281 464.02 24.6107 464.114 24.2561C464.226 23.9014 464.403 23.5654 464.646 23.2481C464.907 22.9307 465.243 22.6694 465.654 22.4641C466.083 22.2401 466.615 22.1281 467.25 22.1281C468.22 22.1281 468.939 22.3894 469.406 22.9121C469.891 23.4347 470.227 24.2001 470.414 25.2081ZM463.946 27.7281H474.39C474.464 26.6081 474.371 25.5347 474.11 24.5081C473.848 23.4814 473.419 22.5667 472.822 21.7641C472.243 20.9614 471.496 20.3267 470.582 19.8601C469.667 19.3747 468.594 19.1321 467.362 19.1321C466.26 19.1321 465.252 19.3281 464.338 19.7201C463.442 20.1121 462.667 20.6534 462.014 21.3441C461.36 22.0161 460.856 22.8187 460.502 23.7521C460.147 24.6854 459.97 25.6934 459.97 26.7761C459.97 27.8961 460.138 28.9227 460.474 29.8561C460.828 30.7894 461.323 31.5921 461.958 32.2641C462.592 32.9361 463.367 33.4587 464.282 33.8321C465.196 34.1867 466.223 34.3641 467.362 34.3641C469.004 34.3641 470.404 33.9907 471.562 33.2441C472.719 32.4974 473.578 31.2561 474.138 29.5201H470.638C470.507 29.9681 470.152 30.3974 469.574 30.8081C468.995 31.2001 468.304 31.3961 467.502 31.3961C466.382 31.3961 465.523 31.1067 464.926 30.5281C464.328 29.9494 464.002 29.0161 463.946 27.7281Z" fill="#101828"/>
<path d="M475.74 23.9761C475.796 23.0427 476.029 22.2681 476.44 21.6521C476.85 21.0361 477.373 20.5414 478.008 20.1681C478.642 19.7947 479.352 19.5334 480.136 19.3841C480.938 19.2161 481.741 19.1321 482.544 19.1321C483.272 19.1321 484.009 19.1881 484.756 19.3001C485.502 19.3934 486.184 19.5894 486.8 19.8881C487.416 20.1867 487.92 20.6067 488.312 21.1481C488.704 21.6707 488.9 22.3707 488.9 23.2481V30.7801C488.9 31.4334 488.937 32.0587 489.012 32.6561C489.086 33.2534 489.217 33.7014 489.404 34.0001H485.372C485.297 33.7761 485.232 33.5521 485.176 33.3281C485.138 33.0854 485.11 32.8427 485.092 32.6001C484.457 33.2534 483.71 33.7107 482.852 33.9721C481.993 34.2334 481.116 34.3641 480.22 34.3641C479.529 34.3641 478.885 34.2801 478.288 34.1121C477.69 33.9441 477.168 33.6827 476.72 33.3281C476.272 32.9734 475.917 32.5254 475.656 31.9841C475.413 31.4427 475.292 30.7987 475.292 30.0521C475.292 29.2307 475.432 28.5587 475.712 28.0361C476.01 27.4947 476.384 27.0654 476.832 26.7481C477.298 26.4307 477.821 26.1974 478.4 26.0481C478.997 25.8801 479.594 25.7494 480.192 25.6561C480.789 25.5627 481.377 25.4881 481.956 25.4321C482.534 25.3761 483.048 25.2921 483.496 25.1801C483.944 25.0681 484.298 24.9094 484.56 24.7041C484.821 24.4801 484.942 24.1627 484.924 23.7521C484.924 23.3227 484.849 22.9867 484.7 22.7441C484.569 22.4827 484.382 22.2867 484.14 22.1561C483.916 22.0067 483.645 21.9134 483.328 21.8761C483.029 21.8201 482.702 21.7921 482.348 21.7921C481.564 21.7921 480.948 21.9601 480.5 22.2961C480.052 22.6321 479.79 23.1921 479.716 23.9761H475.74ZM484.924 26.9161C484.756 27.0654 484.541 27.1867 484.28 27.2801C484.037 27.3547 483.766 27.4201 483.468 27.4761C483.188 27.5321 482.889 27.5787 482.572 27.6161C482.254 27.6534 481.937 27.7001 481.62 27.7561C481.321 27.8121 481.022 27.8867 480.724 27.9801C480.444 28.0734 480.192 28.2041 479.968 28.3721C479.762 28.5214 479.594 28.7174 479.464 28.9601C479.333 29.2027 479.268 29.5107 479.268 29.8841C479.268 30.2387 479.333 30.5374 479.464 30.7801C479.594 31.0227 479.772 31.2187 479.996 31.3681C480.22 31.4987 480.481 31.5921 480.78 31.6481C481.078 31.7041 481.386 31.7321 481.704 31.7321C482.488 31.7321 483.094 31.6014 483.524 31.3401C483.953 31.0787 484.27 30.7707 484.476 30.4161C484.681 30.0427 484.802 29.6694 484.84 29.2961C484.896 28.9227 484.924 28.6241 484.924 28.4001V26.9161Z" fill="#101828"/>
<path d="M496.186 19.5241V15.1841H492.21V19.5241H489.802V22.1841H492.21V30.7241C492.21 31.4521 492.331 32.0401 492.574 32.4881C492.817 32.9361 493.143 33.2814 493.554 33.5241C493.983 33.7667 494.469 33.9254 495.01 34.0001C495.57 34.0934 496.158 34.1401 496.774 34.1401C497.166 34.1401 497.567 34.1307 497.978 34.1121C498.389 34.0934 498.762 34.0561 499.098 34.0001V30.9201C498.911 30.9574 498.715 30.9854 498.51 31.0041C498.305 31.0227 498.09 31.0321 497.866 31.0321C497.194 31.0321 496.746 30.9201 496.522 30.6961C496.298 30.4721 496.186 30.0241 496.186 29.3521V22.1841H499.098V19.5241H496.186Z" fill="#101828"/>
<path d="M500.15 14.0081V34.0001H504.126V26.4121C504.126 24.9374 504.368 23.8827 504.854 23.2481C505.339 22.5947 506.123 22.2681 507.206 22.2681C508.158 22.2681 508.82 22.5667 509.194 23.1641C509.567 23.7427 509.754 24.6294 509.754 25.8241V34.0001H513.73V25.0961C513.73 24.2001 513.646 23.3881 513.478 22.6601C513.328 21.9134 513.058 21.2881 512.666 20.7841C512.274 20.2614 511.732 19.8601 511.042 19.5801C510.37 19.2814 509.502 19.1321 508.438 19.1321C507.691 19.1321 506.926 19.3281 506.142 19.7201C505.358 20.0934 504.714 20.7001 504.21 21.5401H504.126V14.0081H500.15Z" fill="#101828"/>
<path d="M525.651 25.2081H519.183C519.202 24.9281 519.258 24.6107 519.351 24.2561C519.463 23.9014 519.641 23.5654 519.883 23.2481C520.145 22.9307 520.481 22.6694 520.891 22.4641C521.321 22.2401 521.853 22.1281 522.487 22.1281C523.458 22.1281 524.177 22.3894 524.643 22.9121C525.129 23.4347 525.465 24.2001 525.651 25.2081ZM519.183 27.7281H529.627C529.702 26.6081 529.609 25.5347 529.347 24.5081C529.086 23.4814 528.657 22.5667 528.059 21.7641C527.481 20.9614 526.734 20.3267 525.819 19.8601C524.905 19.3747 523.831 19.1321 522.599 19.1321C521.498 19.1321 520.49 19.3281 519.575 19.7201C518.679 20.1121 517.905 20.6534 517.251 21.3441C516.598 22.0161 516.094 22.8187 515.739 23.7521C515.385 24.6854 515.207 25.6934 515.207 26.7761C515.207 27.8961 515.375 28.9227 515.711 29.8561C516.066 30.7894 516.561 31.5921 517.195 32.2641C517.83 32.9361 518.605 33.4587 519.519 33.8321C520.434 34.1867 521.461 34.3641 522.599 34.3641C524.242 34.3641 525.642 33.9907 526.799 33.2441C527.957 32.4974 528.815 31.2561 529.375 29.5201H525.875C525.745 29.9681 525.39 30.3974 524.811 30.8081C524.233 31.2001 523.542 31.3961 522.739 31.3961C521.619 31.3961 520.761 31.1067 520.163 30.5281C519.566 29.9494 519.239 29.0161 519.183 27.7281Z" fill="#101828"/>
<path d="M531.145 19.5241V34.0001H535.121V27.4761C535.121 26.8227 535.187 26.2161 535.317 25.6561C535.448 25.0961 535.663 24.6107 535.961 24.2001C536.279 23.7707 536.689 23.4347 537.193 23.1921C537.697 22.9494 538.313 22.8281 539.041 22.8281C539.284 22.8281 539.536 22.8467 539.797 22.8841C540.059 22.9027 540.283 22.9307 540.469 22.9681V19.2721C540.152 19.1787 539.863 19.1321 539.601 19.1321C539.097 19.1321 538.612 19.2067 538.145 19.3561C537.679 19.5054 537.24 19.7201 536.829 20.0001C536.419 20.2614 536.055 20.5881 535.737 20.9801C535.42 21.3534 535.168 21.7641 534.981 22.2121H534.925V19.5241H531.145Z" fill="#101828"/>
<path d="M546.004 30.3041V17.7041H549.14C550.223 17.7041 551.128 17.8627 551.856 18.1801C552.603 18.4787 553.2 18.9174 553.648 19.4961C554.096 20.0747 554.414 20.7747 554.6 21.5961C554.806 22.3987 554.908 23.3041 554.908 24.3121C554.908 25.4134 554.768 26.3467 554.488 27.1121C554.208 27.8774 553.835 28.5027 553.368 28.9881C552.902 29.4547 552.37 29.7907 551.772 29.9961C551.175 30.2014 550.559 30.3041 549.924 30.3041H546.004ZM541.608 14.0081V34.0001H550.232C551.763 34.0001 553.088 33.7481 554.208 33.2441C555.347 32.7214 556.29 32.0121 557.036 31.1161C557.802 30.2201 558.371 29.1561 558.744 27.9241C559.118 26.6921 559.304 25.3481 559.304 23.8921C559.304 22.2307 559.071 20.7841 558.604 19.5521C558.156 18.3201 557.522 17.2934 556.7 16.4721C555.898 15.6507 554.936 15.0347 553.816 14.6241C552.715 14.2134 551.52 14.0081 550.232 14.0081H541.608Z" fill="#101828"/>
<path d="M570.846 25.2081H564.378C564.397 24.9281 564.453 24.6107 564.546 24.2561C564.658 23.9014 564.835 23.5654 565.078 23.2481C565.339 22.9307 565.675 22.6694 566.086 22.4641C566.515 22.2401 567.047 22.1281 567.682 22.1281C568.653 22.1281 569.371 22.3894 569.838 22.9121C570.323 23.4347 570.659 24.2001 570.846 25.2081ZM564.378 27.7281H574.822C574.897 26.6081 574.803 25.5347 574.542 24.5081C574.281 23.4814 573.851 22.5667 573.254 21.7641C572.675 20.9614 571.929 20.3267 571.014 19.8601C570.099 19.3747 569.026 19.1321 567.794 19.1321C566.693 19.1321 565.685 19.3281 564.77 19.7201C563.874 20.1121 563.099 20.6534 562.446 21.3441C561.793 22.0161 561.289 22.8187 560.934 23.7521C560.579 24.6854 560.402 25.6934 560.402 26.7761C560.402 27.8961 560.57 28.9227 560.906 29.8561C561.261 30.7894 561.755 31.5921 562.39 32.2641C563.025 32.9361 563.799 33.4587 564.714 33.8321C565.629 34.1867 566.655 34.3641 567.794 34.3641C569.437 34.3641 570.837 33.9907 571.994 33.2441C573.151 32.4974 574.01 31.2561 574.57 29.5201H571.07C570.939 29.9681 570.585 30.3974 570.006 30.8081C569.427 31.2001 568.737 31.3961 567.934 31.3961C566.814 31.3961 565.955 31.1067 565.358 30.5281C564.761 29.9494 564.434 29.0161 564.378 27.7281Z" fill="#101828"/>
<path d="M584.348 34.0001L589.248 19.5241H585.3L582.248 29.4081H582.192L579.14 19.5241H574.968L579.924 34.0001H584.348Z" fill="#101828"/>
<circle cx="638.6" cy="24.25" r="20.5" stroke="#6927DA" stroke-width="3"/>
<path d="M646.732 32.3817C642.592 36.5211 637.903 39.2233 633.726 40.2972C629.512 41.3808 626.116 40.7571 624.104 38.7456C622.093 36.7342 621.469 33.3376 622.553 29.1235C623.627 24.9472 626.329 20.2576 630.468 16.1182C634.608 11.9788 639.297 9.27662 643.474 8.2027C647.688 7.11907 651.084 7.74286 653.096 9.75427C655.107 11.7657 655.731 15.1623 654.647 19.3764C653.573 23.5528 650.871 28.2423 646.732 32.3817Z" stroke="#6927DA" stroke-width="3"/>
<path d="M646.732 16.1182C650.871 20.2576 653.573 24.9471 654.647 29.1235C655.731 33.3376 655.107 36.7342 653.095 38.7456C651.084 40.757 647.687 41.3808 643.473 40.2972C639.297 39.2233 634.607 36.5211 630.468 32.3817C626.329 28.2423 623.626 23.5528 622.553 19.3764C621.469 15.1623 622.093 11.7657 624.104 9.75426C626.115 7.74285 629.512 7.11906 633.726 8.20269C637.903 9.27661 642.592 11.9788 646.732 16.1182Z" stroke="#6927DA" stroke-width="3"/>
<path d="M679.45 34.2401C684.16 34.2401 687.34 31.7801 687.34 27.8501C687.34 19.5401 676.3 23.0801 676.3 18.7001C676.3 17.4701 677.41 16.6301 679.18 16.6301C681.19 16.6301 682.45 17.7101 682.6 19.3601H686.89C686.77 15.3701 683.71 12.7601 679.18 12.7601C674.92 12.7601 671.92 15.2201 671.92 18.7001C671.92 26.9501 682.81 23.8001 682.81 27.9101C682.81 29.5001 681.46 30.3401 679.45 30.3401C677.23 30.3401 675.82 28.9901 675.64 26.8601H671.32C671.5 31.3301 674.68 34.2401 679.45 34.2401Z" fill="#101828"/>
<path d="M688.36 40.1201H692.53V32.6501C693.34 33.6701 694.81 34.2401 696.52 34.2401C700.87 34.2401 703.81 31.1501 703.81 26.4401C703.81 21.7301 701.11 18.6401 696.88 18.6401C694.93 18.6401 693.43 19.3601 692.53 20.5301V18.8801H688.36V40.1201ZM696.01 30.6401C693.76 30.6401 692.29 28.9601 692.29 26.4401C692.29 23.8901 693.76 22.2101 696.01 22.2101C698.2 22.2101 699.7 23.8901 699.7 26.4401C699.7 28.9601 698.2 30.6401 696.01 30.6401Z" fill="#101828"/>
<path d="M704.819 34.0001H708.989V25.7201C708.989 23.7701 710.279 22.3601 712.109 22.3601C713.849 22.3601 715.049 23.6801 715.049 25.5101V34.0001H719.219V24.5801C719.219 21.1001 716.999 18.6401 713.609 18.6401C711.509 18.6401 709.859 19.5101 708.989 20.9801V12.3101H704.819V34.0001Z" fill="#101828"/>
<path d="M730.885 28.8701C730.555 30.1601 729.445 30.8201 727.765 30.8201C725.665 30.8201 724.315 29.5001 724.015 27.3701H734.875C734.905 27.0401 734.935 26.5901 734.935 26.0201C734.935 22.5701 732.805 18.6401 727.465 18.6401C722.335 18.6401 719.995 22.5701 719.995 26.4101C719.995 30.2201 722.635 34.2401 727.765 34.2401C731.485 34.2401 734.365 32.1401 734.965 28.8701H730.885ZM727.465 21.7001C729.475 21.7001 730.645 23.0501 730.765 24.7301H724.075C724.435 22.6301 725.575 21.7001 727.465 21.7001Z" fill="#101828"/>
<path d="M745.871 22.3601V18.8801H743.719C741.889 18.8801 740.749 19.5101 739.939 21.4001V18.8801H735.739V34.0001H739.939V26.6501C739.939 24.0701 740.869 22.3601 742.939 22.3601H745.871Z" fill="#101828"/>
<path d="M760.271 18.8801H756.071V27.1601C756.071 29.0801 754.781 30.5201 752.951 30.5201C751.241 30.5201 750.041 29.2001 750.041 27.3701V18.8801H745.871V28.3001C745.871 31.7501 748.091 34.2401 751.481 34.2401C753.551 34.2401 755.231 33.3401 756.071 31.9001V34.0001H760.271V18.8801Z" fill="#101828"/>
<path d="M762.071 34.0001H766.241V12.3101H762.071V34.0001Z" fill="#101828"/>
<path d="M778.146 28.8701C777.816 30.1601 776.706 30.8201 775.026 30.8201C772.926 30.8201 771.576 29.5001 771.276 27.3701H782.136C782.166 27.0401 782.196 26.5901 782.196 26.0201C782.196 22.5701 780.066 18.6401 774.726 18.6401C769.596 18.6401 767.256 22.5701 767.256 26.4101C767.256 30.2201 769.896 34.2401 775.026 34.2401C778.746 34.2401 781.626 32.1401 782.226 28.8701H778.146ZM774.726 21.7001C776.736 21.7001 777.906 23.0501 778.026 24.7301H771.336C771.696 22.6301 772.836 21.7001 774.726 21.7001Z" fill="#101828"/>
<path d="M840.229 2H823.371L809.8 15.5711V32.4289L823.371 46H840.229L853.8 32.4289V15.5711L840.229 2ZM825.704 32.641L817.01 23.947L825.704 15.253C828.99 11.9663 834.398 11.9663 837.684 15.253L846.378 23.947L837.684 32.641C834.398 35.9277 829.096 35.9277 825.704 32.641Z" fill="#444CE7"/>
<path d="M873.14 34.2401C875.84 34.2401 878.06 32.8601 878.75 30.7901V34.0001H882.74V25.9001C882.74 24.0701 881.3 22.5101 879.35 22.5101H873.65V25.9001H877.7C878.21 25.9001 878.54 26.2301 878.54 26.7401C878.54 28.6901 875.96 30.5801 873.35 30.5801C869.87 30.5801 867.11 27.8501 867.11 23.5001C867.11 19.1501 869.87 16.6301 873.44 16.6301C876.14 16.6301 878 18.1001 878.33 20.3501H882.8C882.53 15.8501 878.75 12.7601 873.47 12.7601C867.92 12.7601 862.82 16.3301 862.82 23.5001C862.82 30.6701 867.77 34.2401 873.14 34.2401Z" fill="#101828"/>
<path d="M884.453 34.0001H888.623V12.3101H884.453V34.0001Z" fill="#101828"/>
<path d="M897.618 34.2401C902.268 34.2401 905.598 30.9401 905.598 26.4401C905.598 21.9401 902.268 18.6401 897.618 18.6401C892.968 18.6401 889.638 21.9401 889.638 26.4401C889.638 30.9401 892.968 34.2401 897.618 34.2401ZM897.618 30.6401C895.368 30.6401 893.838 28.9301 893.838 26.4401C893.838 23.9201 895.368 22.2101 897.618 22.2101C899.868 22.2101 901.398 23.9201 901.398 26.4401C901.398 28.9301 899.868 30.6401 897.618 30.6401Z" fill="#101828"/>
<path d="M914.929 34.2401C919.399 34.2401 922.069 31.1501 922.069 26.4401C922.069 21.7301 919.399 18.6401 914.989 18.6401C913.099 18.6401 911.629 19.3601 910.789 20.4701V12.3101H906.619V34.0001H910.789V32.3501C911.629 33.5201 913.189 34.2401 914.929 34.2401ZM914.269 30.6401C912.019 30.6401 910.549 28.9601 910.549 26.4401C910.549 23.8901 912.019 22.2101 914.269 22.2101C916.459 22.2101 917.959 23.8901 917.959 26.4401C917.959 28.9601 916.459 30.6401 914.269 30.6401Z" fill="#101828"/>
<path d="M929.049 18.6401C924.909 18.6401 922.449 21.0701 922.269 24.1001H925.989C926.049 22.8401 926.979 21.7001 928.809 21.7001C930.519 21.7001 931.509 22.5701 931.509 23.8301C931.509 24.4601 931.119 24.9401 930.369 24.9401H927.819C924.519 24.9401 922.299 26.7401 922.299 29.7101C922.299 32.2901 924.309 34.2401 927.249 34.2401C929.319 34.2401 930.999 33.3101 931.509 31.9001V34.0001H935.649V24.2801C935.649 20.8601 932.859 18.6401 929.049 18.6401ZM928.299 31.2101C927.129 31.2101 926.289 30.5201 926.289 29.5301C926.289 28.3601 927.189 27.5801 928.449 27.5801H931.509V27.7901C931.509 29.7101 930.339 31.2101 928.299 31.2101Z" fill="#101828"/>
<path d="M937.252 34.0001H941.422V12.3101H937.252V34.0001Z" fill="#101828"/>
<path d="M943.637 34.0001H952.217C956.657 34.0001 959.717 31.7201 959.717 27.7301C959.717 24.9701 958.097 23.2901 956.177 22.5401C957.407 21.8801 958.637 20.3801 958.637 18.4001C958.637 14.8901 955.787 13.0001 951.977 13.0001H943.637V34.0001ZM948.077 21.0101V16.5701H951.557C953.567 16.5701 954.467 17.3801 954.467 18.7901C954.467 20.2001 953.567 21.0101 951.647 21.0101H948.077ZM948.077 30.1001V24.8201H951.827C954.317 24.8201 955.427 25.7801 955.427 27.4901C955.427 29.2001 954.317 30.1001 951.827 30.1001H948.077Z" fill="#101828"/>
<path d="M966.971 18.6401C962.831 18.6401 960.371 21.0701 960.191 24.1001H963.911C963.971 22.8401 964.901 21.7001 966.731 21.7001C968.441 21.7001 969.431 22.5701 969.431 23.8301C969.431 24.4601 969.041 24.9401 968.291 24.9401H965.741C962.441 24.9401 960.221 26.7401 960.221 29.7101C960.221 32.2901 962.231 34.2401 965.171 34.2401C967.241 34.2401 968.921 33.3101 969.431 31.9001V34.0001H973.571V24.2801C973.571 20.8601 970.781 18.6401 966.971 18.6401ZM966.221 31.2101C965.051 31.2101 964.211 30.5201 964.211 29.5301C964.211 28.3601 965.111 27.5801 966.371 27.5801H969.431V27.7901C969.431 29.7101 968.261 31.2101 966.221 31.2101Z" fill="#101828"/>
<path d="M974.934 34.0001H979.134V25.7201C979.134 23.7701 980.424 22.3601 982.254 22.3601C983.994 22.3601 985.164 23.6801 985.164 25.5101V34.0001H989.364V24.5801C989.364 21.1001 987.144 18.6401 983.724 18.6401C981.654 18.6401 979.974 19.5101 979.134 20.9801V18.8801H974.934V34.0001Z" fill="#101828"/>
<path d="M1001.33 34.0001H1006.37L999.864 24.8201L1005.89 18.8801H1000.61L995.364 24.0401V12.3101H991.164V34.0001H995.364V29.2601L997.044 27.6101L1001.33 34.0001Z" fill="#101828"/>
<g clip-path="url(#clip0_8468_298)">
<path d="M1061.27 4.12169L1057.05 2.99072L1053.49 16.2654L1050.28 4.28093L1046.06 5.4119L1049.53 18.3602L1040.89 9.71841L1037.8 12.8083L1047.28 22.2874L1035.47 19.1243L1034.34 23.3451L1047.24 26.8011C1047.09 26.1642 1047.01 25.5006 1047.01 24.8187C1047.01 19.992 1050.93 16.0792 1055.75 16.0792C1060.58 16.0792 1064.49 19.992 1064.49 24.8187C1064.49 25.4962 1064.41 26.1557 1064.27 26.7889L1075.99 29.9297L1077.12 25.709L1064.17 22.2392L1075.98 19.0759L1074.85 14.8551L1061.9 18.3247L1070.54 9.68293L1067.45 6.59307L1058.1 15.9406L1061.27 4.12169Z" fill="#FF4405"/>
<path d="M1064.26 26.838C1063.89 28.368 1063.13 29.7424 1062.08 30.8435L1070.57 39.3357L1073.66 36.2458L1064.26 26.838Z" fill="#FF4405"/>
<path d="M1062 30.9323C1060.94 32.0159 1059.6 32.8245 1058.09 33.2413L1061.18 44.7735L1065.4 43.6425L1062 30.9323Z" fill="#FF4405"/>
<path d="M1057.93 33.2835C1057.24 33.4628 1056.51 33.5581 1055.75 33.5581C1054.94 33.5581 1054.16 33.4486 1053.42 33.2437L1050.33 44.7866L1054.55 45.9175L1057.93 33.2835Z" fill="#FF4405"/>
<path d="M1053.27 33.2012C1051.79 32.7638 1050.47 31.9448 1049.43 30.8581L1040.92 39.3711L1044.01 42.4609L1053.27 33.2012Z" fill="#FF4405"/>
<path d="M1049.36 30.7829C1048.34 29.6893 1047.6 28.3333 1047.25 26.827L1035.48 29.9781L1036.62 34.1989L1049.36 30.7829Z" fill="#FF4405"/>
</g>
<path d="M1102.52 12.9092V28.1192L1092.77 12.9092H1088.87V33.9092H1092.77V18.8192L1102.52 33.9092H1106.42V12.9092H1102.52Z" fill="#101828"/>
<path d="M1108.18 16.8392H1112.2V12.9092H1108.18V16.8392ZM1108.24 33.9092V18.9092H1112.14V33.9092H1108.24Z" fill="#101828"/>
<path d="M1128.92 26.4092C1128.92 21.2192 1125.23 18.7592 1121.33 18.7292C1117.4 18.6992 1113.77 21.2192 1113.77 26.4092C1113.77 31.5992 1117.4 34.1192 1121.33 34.0892C1124.9 34.0592 1127.36 32.4092 1128.5 29.6792L1125.47 28.4192C1124.54 30.2792 1123.07 30.9392 1121.33 30.9692C1119.83 30.9992 1118.12 30.2792 1117.76 27.6092H1128.83C1128.89 27.2192 1128.92 26.8292 1128.92 26.4092ZM1121.33 21.8192C1122.83 21.8492 1124.36 22.6592 1124.84 24.8192H1117.82C1118.33 22.6292 1119.86 21.7892 1121.33 21.8192Z" fill="#101828"/>
<path d="M1137.93 21.6992V18.7292H1135.47V14.7092L1131.57 15.9092V18.7292H1129.11V21.6992H1131.57V29.4692C1131.57 32.4092 1131.81 33.9092 1136.37 33.9092H1137.42V30.4892H1136.37C1135.65 30.4892 1135.47 30.3692 1135.47 29.4692V21.6992H1137.93Z" fill="#101828"/>
<path d="M1143.73 30.6392L1152.01 22.1792V18.9092H1139.59V22.1792H1147.63L1139.35 30.6392V33.9092H1152.1V30.6392H1143.73Z" fill="#101828"/>
<path d="M1153.49 29.6792L1157.42 29.0792C1157.69 30.5792 1159.46 31.1492 1160.54 31.1492C1161.65 31.1492 1163.57 30.9092 1163.57 29.1092C1163.57 25.5992 1153.94 29.9792 1153.94 23.2592C1153.94 18.9392 1158.95 18.6992 1160.54 18.6992C1162.04 18.6992 1166.39 18.9392 1167.29 22.4192L1163.57 23.1992C1163.24 21.6092 1161.56 21.3092 1160.66 21.3092C1159.76 21.3092 1157.84 21.5192 1157.84 23.2592C1157.84 26.7392 1167.47 22.2992 1167.47 29.1092C1167.47 33.6992 1162.19 34.0892 1160.54 34.0892C1159.04 34.0892 1154.27 33.6992 1153.49 29.6792Z" fill="#101828"/>
<path d="M1172.54 26.4092C1172.54 30.0692 1174.49 31.1792 1176.53 31.1492C1178.36 31.1192 1179.62 30.3692 1180.37 28.2692L1183.58 29.8292C1182.41 32.8892 1179.56 34.0592 1176.53 34.0892C1172.6 34.1192 1168.64 31.5992 1168.64 26.4092C1168.64 21.2192 1172.6 18.6992 1176.53 18.7292C1179.56 18.7592 1182.41 19.9292 1183.58 22.9892L1180.37 24.5492C1179.62 22.4492 1178.36 21.6992 1176.53 21.6692C1174.49 21.6392 1172.54 22.7492 1172.54 26.4092Z" fill="#101828"/>
<path d="M1194.05 18.6692C1192.04 18.6692 1190.21 19.7192 1189.04 21.9692V12.9092H1185.14V33.9092H1189.04V28.5992C1189.04 21.7292 1191.89 21.1592 1192.94 21.1592C1194.62 21.1592 1194.86 22.8992 1194.86 25.4492V33.9092H1198.76V25.4492C1198.76 22.2692 1198.25 18.6692 1194.05 18.6692Z" fill="#101828"/>
<path d="M1215.23 26.4092C1215.23 21.2192 1211.54 18.7592 1207.64 18.7292C1203.71 18.6992 1200.08 21.2192 1200.08 26.4092C1200.08 31.5992 1203.71 34.1192 1207.64 34.0892C1211.21 34.0592 1213.67 32.4092 1214.81 29.6792L1211.78 28.4192C1210.85 30.2792 1209.38 30.9392 1207.64 30.9692C1206.14 30.9992 1204.43 30.2792 1204.07 27.6092H1215.14C1215.2 27.2192 1215.23 26.8292 1215.23 26.4092ZM1207.64 21.8192C1209.14 21.8492 1210.67 22.6592 1211.15 24.8192H1204.13C1204.64 22.6292 1206.17 21.7892 1207.64 21.8192Z" fill="#101828"/>
<defs>
<clipPath id="clip0_8468_298">
<rect width="44" height="44" fill="white" transform="translate(1034 2)"/>
</clipPath>
</defs>
</svg>
