<svg width="1086" height="108" viewBox="0 0 1086 108" fill="none" xmlns="http://www.w3.org/2000/svg">
<path d="M10.3311 37L0.649281 2.09091H6.18905L12.9902 29.125H13.3141L20.3879 2.09091H25.8766L32.9504 29.142H33.2743L40.0584 2.09091H45.6152L35.9163 37H30.6152L23.2686 10.8523H22.9959L15.6493 37H10.3311ZM57.7546 37.5284C55.1751 37.5284 52.9535 36.9773 51.0899 35.875C49.2376 34.7614 47.8058 33.1989 46.7944 31.1875C45.7944 29.1648 45.2944 26.7955 45.2944 24.0795C45.2944 21.3977 45.7944 19.0341 46.7944 16.9886C47.8058 14.9432 49.2149 13.3466 51.0217 12.1989C52.8399 11.0511 54.9649 10.4773 57.3967 10.4773C58.8739 10.4773 60.3058 10.7216 61.6921 11.2102C63.0785 11.6989 64.3228 12.4659 65.4251 13.5114C66.5274 14.5568 67.3967 15.9148 68.033 17.5852C68.6694 19.2443 68.9876 21.2614 68.9876 23.6364V25.4432H48.1751V21.625H63.9933C63.9933 20.2841 63.7205 19.0966 63.1751 18.0625C62.6296 17.017 61.8626 16.1932 60.8739 15.5909C59.8967 14.9886 58.7489 14.6875 57.4308 14.6875C55.9989 14.6875 54.7489 15.0398 53.6808 15.7443C52.6239 16.4375 51.8058 17.3466 51.2262 18.4716C50.658 19.5852 50.3739 20.7955 50.3739 22.1023V25.0852C50.3739 26.8352 50.6808 28.3239 51.2944 29.5511C51.9194 30.7784 52.7887 31.7159 53.9024 32.3636C55.016 33 56.3171 33.3182 57.8058 33.3182C58.7717 33.3182 59.6524 33.1818 60.4478 32.9091C61.2433 32.625 61.9308 32.2045 62.5103 31.6477C63.0899 31.0909 63.533 30.4034 63.8399 29.5852L68.6637 30.4545C68.2774 31.875 67.5842 33.1193 66.5842 34.1875C65.5955 35.2443 64.3512 36.0682 62.8512 36.6591C61.3626 37.2386 59.6637 37.5284 57.7546 37.5284ZM78.0631 2.09091V5.36364C78.0631 6.32955 77.8813 7.34659 77.5176 8.41477C77.1654 9.47159 76.6654 10.4886 76.0176 11.4659C75.3699 12.4432 74.6085 13.2841 73.7335 13.9886L71.2108 12.1818C71.8813 11.2045 72.4608 10.1648 72.9495 9.0625C73.4495 7.96023 73.6995 6.74432 73.6995 5.41477V2.09091H78.0631ZM105.526 10.8182L96.0321 37H90.5775L81.0662 10.8182H86.5377L93.1684 30.9659H93.4412L100.055 10.8182H105.526ZM119.75 37.5284C117.17 37.5284 114.948 36.9773 113.085 35.875C111.233 34.7614 109.801 33.1989 108.789 31.1875C107.789 29.1648 107.289 26.7955 107.289 24.0795C107.289 21.3977 107.789 19.0341 108.789 16.9886C109.801 14.9432 111.21 13.3466 113.017 12.1989C114.835 11.0511 116.96 10.4773 119.392 10.4773C120.869 10.4773 122.301 10.7216 123.687 11.2102C125.073 11.6989 126.318 12.4659 127.42 13.5114C128.522 14.5568 129.392 15.9148 130.028 17.5852C130.664 19.2443 130.983 21.2614 130.983 23.6364V25.4432H110.17V21.625H125.988C125.988 20.2841 125.716 19.0966 125.17 18.0625C124.625 17.017 123.858 16.1932 122.869 15.5909C121.892 14.9886 120.744 14.6875 119.426 14.6875C117.994 14.6875 116.744 15.0398 115.676 15.7443C114.619 16.4375 113.801 17.3466 113.221 18.4716C112.653 19.5852 112.369 20.7955 112.369 22.1023V25.0852C112.369 26.8352 112.676 28.3239 113.289 29.5511C113.914 30.7784 114.784 31.7159 115.897 32.3636C117.011 33 118.312 33.3182 119.801 33.3182C120.767 33.3182 121.647 33.1818 122.443 32.9091C123.238 32.625 123.926 32.2045 124.505 31.6477C125.085 31.0909 125.528 30.4034 125.835 29.5852L130.659 30.4545C130.272 31.875 129.579 33.1193 128.579 34.1875C127.591 35.2443 126.346 36.0682 124.846 36.6591C123.358 37.2386 121.659 37.5284 119.75 37.5284ZM147.83 37V2.09091H152.926V15.0625H153.233C153.528 14.517 153.955 13.8864 154.511 13.1705C155.068 12.4545 155.841 11.8295 156.83 11.2955C157.818 10.75 159.125 10.4773 160.75 10.4773C162.864 10.4773 164.75 11.0114 166.409 12.0795C168.068 13.1477 169.369 14.6875 170.313 16.6989C171.267 18.7102 171.744 21.1307 171.744 23.9602C171.744 26.7898 171.273 29.2159 170.33 31.2386C169.386 33.25 168.091 34.8011 166.443 35.892C164.796 36.9716 162.915 37.5114 160.801 37.5114C159.21 37.5114 157.909 37.2443 156.898 36.7102C155.898 36.1761 155.114 35.5511 154.546 34.8352C153.977 34.1193 153.54 33.483 153.233 32.9261H152.807V37H147.83ZM152.824 23.9091C152.824 25.75 153.091 27.3636 153.625 28.75C154.159 30.1364 154.932 31.2216 155.943 32.0057C156.955 32.7784 158.193 33.1648 159.659 33.1648C161.182 33.1648 162.455 32.7614 163.477 31.9545C164.5 31.1364 165.273 30.0284 165.796 28.6307C166.33 27.233 166.597 25.6591 166.597 23.9091C166.597 22.1818 166.335 20.6307 165.813 19.2557C165.301 17.8807 164.528 16.7955 163.494 16C162.472 15.2045 161.193 14.8068 159.659 14.8068C158.182 14.8068 156.932 15.1875 155.909 15.9489C154.898 16.7102 154.131 17.7727 153.608 19.1364C153.085 20.5 152.824 22.0909 152.824 23.9091ZM187.791 37.5284C185.212 37.5284 182.99 36.9773 181.127 35.875C179.274 34.7614 177.843 33.1989 176.831 31.1875C175.831 29.1648 175.331 26.7955 175.331 24.0795C175.331 21.3977 175.831 19.0341 176.831 16.9886C177.843 14.9432 179.252 13.3466 181.059 12.1989C182.877 11.0511 185.002 10.4773 187.434 10.4773C188.911 10.4773 190.343 10.7216 191.729 11.2102C193.115 11.6989 194.36 12.4659 195.462 13.5114C196.564 14.5568 197.434 15.9148 198.07 17.5852C198.706 19.2443 199.024 21.2614 199.024 23.6364V25.4432H178.212V21.625H194.03C194.03 20.2841 193.757 19.0966 193.212 18.0625C192.666 17.017 191.899 16.1932 190.911 15.5909C189.934 14.9886 188.786 14.6875 187.468 14.6875C186.036 14.6875 184.786 15.0398 183.718 15.7443C182.661 16.4375 181.843 17.3466 181.263 18.4716C180.695 19.5852 180.411 20.7955 180.411 22.1023V25.0852C180.411 26.8352 180.718 28.3239 181.331 29.5511C181.956 30.7784 182.826 31.7159 183.939 32.3636C185.053 33 186.354 33.3182 187.843 33.3182C188.809 33.3182 189.689 33.1818 190.485 32.9091C191.28 32.625 191.968 32.2045 192.547 31.6477C193.127 31.0909 193.57 30.4034 193.877 29.5852L198.701 30.4545C198.314 31.875 197.621 33.1193 196.621 34.1875C195.632 35.2443 194.388 36.0682 192.888 36.6591C191.399 37.2386 189.701 37.5284 187.791 37.5284ZM215.003 37.5284C212.424 37.5284 210.202 36.9773 208.339 35.875C206.486 34.7614 205.055 33.1989 204.043 31.1875C203.043 29.1648 202.543 26.7955 202.543 24.0795C202.543 21.3977 203.043 19.0341 204.043 16.9886C205.055 14.9432 206.464 13.3466 208.27 12.1989C210.089 11.0511 212.214 10.4773 214.645 10.4773C216.123 10.4773 217.555 10.7216 218.941 11.2102C220.327 11.6989 221.572 12.4659 222.674 13.5114C223.776 14.5568 224.645 15.9148 225.282 17.5852C225.918 19.2443 226.236 21.2614 226.236 23.6364V25.4432H205.424V21.625H221.242C221.242 20.2841 220.969 19.0966 220.424 18.0625C219.878 17.017 219.111 16.1932 218.123 15.5909C217.145 14.9886 215.998 14.6875 214.68 14.6875C213.248 14.6875 211.998 15.0398 210.93 15.7443C209.873 16.4375 209.055 17.3466 208.475 18.4716C207.907 19.5852 207.623 20.7955 207.623 22.1023V25.0852C207.623 26.8352 207.93 28.3239 208.543 29.5511C209.168 30.7784 210.037 31.7159 211.151 32.3636C212.265 33 213.566 33.3182 215.055 33.3182C216.02 33.3182 216.901 33.1818 217.697 32.9091C218.492 32.625 219.18 32.2045 219.759 31.6477C220.339 31.0909 220.782 30.4034 221.089 29.5852L225.912 30.4545C225.526 31.875 224.833 33.1193 223.833 34.1875C222.844 35.2443 221.6 36.0682 220.1 36.6591C218.611 37.2386 216.912 37.5284 215.003 37.5284ZM236.028 21.4545V37H230.931V10.8182H235.823V15.0795H236.147C236.749 13.6932 237.693 12.5795 238.977 11.7386C240.272 10.8977 241.903 10.4773 243.869 10.4773C245.653 10.4773 247.215 10.8523 248.556 11.6023C249.897 12.3409 250.937 13.4432 251.675 14.9091C252.414 16.375 252.783 18.1875 252.783 20.3466V37H247.687V20.9602C247.687 19.0625 247.193 17.5795 246.204 16.5114C245.215 15.4318 243.857 14.892 242.13 14.892C240.948 14.892 239.897 15.1477 238.977 15.6591C238.068 16.1705 237.346 16.9205 236.812 17.9091C236.289 18.8864 236.028 20.0682 236.028 21.4545ZM286.987 26.142V10.8182H292.101V37H287.089V32.4659H286.817C286.214 33.8636 285.248 35.0284 283.919 35.9602C282.601 36.8807 280.959 37.3409 278.993 37.3409C277.311 37.3409 275.822 36.9716 274.527 36.233C273.243 35.483 272.231 34.375 271.493 32.9091C270.765 31.4432 270.402 29.6307 270.402 27.4716V10.8182H275.498V26.858C275.498 28.642 275.993 30.0625 276.981 31.1193C277.97 32.1761 279.254 32.7045 280.834 32.7045C281.788 32.7045 282.737 32.4659 283.68 31.9886C284.635 31.5114 285.425 30.7898 286.05 29.8239C286.686 28.858 286.998 27.6307 286.987 26.142ZM317.608 17.2102L312.989 18.0284C312.795 17.4375 312.489 16.875 312.068 16.3409C311.659 15.8068 311.102 15.3693 310.398 15.0284C309.693 14.6875 308.813 14.517 307.756 14.517C306.313 14.517 305.108 14.8409 304.142 15.4886C303.176 16.125 302.693 16.9489 302.693 17.9602C302.693 18.8352 303.017 19.5398 303.665 20.0739C304.313 20.608 305.358 21.0455 306.801 21.3864L310.96 22.3409C313.369 22.8977 315.165 23.7557 316.347 24.9148C317.528 26.0739 318.119 27.5795 318.119 29.4318C318.119 31 317.665 32.3977 316.756 33.625C315.858 34.8409 314.602 35.7955 312.989 36.4886C311.386 37.1818 309.528 37.5284 307.415 37.5284C304.483 37.5284 302.091 36.9034 300.239 35.6534C298.386 34.392 297.25 32.6023 296.83 30.2841L301.756 29.5341C302.063 30.8182 302.693 31.7898 303.648 32.4489C304.602 33.0966 305.847 33.4205 307.381 33.4205C309.051 33.4205 310.386 33.0739 311.386 32.3807C312.386 31.6761 312.886 30.8182 312.886 29.8068C312.886 28.9886 312.58 28.3011 311.966 27.7443C311.364 27.1875 310.438 26.767 309.188 26.483L304.756 25.5114C302.313 24.9545 300.506 24.0682 299.335 22.8523C298.176 21.6364 297.597 20.0966 297.597 18.233C297.597 16.6875 298.028 15.3352 298.892 14.1761C299.756 13.017 300.949 12.1136 302.472 11.4659C303.994 10.8068 305.739 10.4773 307.705 10.4773C310.534 10.4773 312.761 11.0909 314.386 12.3182C316.011 13.5341 317.085 15.1648 317.608 17.2102ZM322.763 37V10.8182H327.86V37H322.763ZM325.337 6.77841C324.451 6.77841 323.689 6.48295 323.053 5.89204C322.428 5.28977 322.115 4.57386 322.115 3.74432C322.115 2.90341 322.428 2.1875 323.053 1.59659C323.689 0.994317 324.451 0.693181 325.337 0.693181C326.223 0.693181 326.979 0.994317 327.604 1.59659C328.24 2.1875 328.558 2.90341 328.558 3.74432C328.558 4.57386 328.24 5.28977 327.604 5.89204C326.979 6.48295 326.223 6.77841 325.337 6.77841ZM338.853 21.4545V37H333.756V10.8182H338.648V15.0795H338.972C339.574 13.6932 340.518 12.5795 341.802 11.7386C343.097 10.8977 344.728 10.4773 346.694 10.4773C348.478 10.4773 350.04 10.8523 351.381 11.6023C352.722 12.3409 353.762 13.4432 354.5 14.9091C355.239 16.375 355.608 18.1875 355.608 20.3466V37H350.512V20.9602C350.512 19.0625 350.018 17.5795 349.029 16.5114C348.04 15.4318 346.682 14.892 344.955 14.892C343.773 14.892 342.722 15.1477 341.802 15.6591C340.893 16.1705 340.171 16.9205 339.637 17.9091C339.114 18.8864 338.853 20.0682 338.853 21.4545ZM372.461 47.3636C370.381 47.3636 368.592 47.0909 367.092 46.5455C365.603 46 364.387 45.2784 363.444 44.3807C362.501 43.483 361.796 42.5 361.33 41.4318L365.711 39.625C366.018 40.125 366.427 40.6534 366.938 41.2102C367.461 41.7784 368.165 42.2614 369.052 42.6591C369.95 43.0568 371.103 43.2557 372.512 43.2557C374.444 43.2557 376.04 42.7841 377.302 41.8409C378.563 40.9091 379.194 39.4205 379.194 37.375V32.2273H378.87C378.563 32.7841 378.12 33.4034 377.54 34.0852C376.972 34.767 376.188 35.358 375.188 35.858C374.188 36.358 372.887 36.608 371.285 36.608C369.217 36.608 367.353 36.125 365.694 35.1591C364.046 34.1818 362.739 32.7443 361.773 30.8466C360.819 28.9375 360.342 26.5909 360.342 23.8068C360.342 21.0227 360.813 18.6364 361.756 16.6477C362.711 14.6591 364.018 13.1364 365.677 12.0795C367.336 11.0114 369.217 10.4773 371.319 10.4773C372.944 10.4773 374.256 10.75 375.256 11.2955C376.256 11.8295 377.035 12.4545 377.592 13.1705C378.16 13.8864 378.597 14.517 378.904 15.0625H379.279V10.8182H384.273V37.5795C384.273 39.8295 383.751 41.6761 382.705 43.1193C381.66 44.5625 380.245 45.6307 378.461 46.3239C376.688 47.017 374.688 47.3636 372.461 47.3636ZM372.41 32.3807C373.876 32.3807 375.114 32.0398 376.126 31.358C377.148 30.6648 377.921 29.6761 378.444 28.392C378.978 27.0966 379.245 25.5455 379.245 23.7386C379.245 21.9773 378.984 20.4261 378.461 19.0852C377.938 17.7443 377.171 16.6989 376.16 15.9489C375.148 15.1875 373.898 14.8068 372.41 14.8068C370.876 14.8068 369.597 15.2045 368.575 16C367.552 16.7841 366.779 17.8523 366.256 19.2045C365.745 20.5568 365.489 22.0682 365.489 23.7386C365.489 25.4545 365.751 26.9602 366.273 28.2557C366.796 29.5511 367.569 30.5625 368.592 31.2898C369.626 32.017 370.898 32.3807 372.41 32.3807ZM424.75 2.09091H430.034V25.0511C430.034 27.4943 429.46 29.6591 428.312 31.5455C427.165 33.4205 425.551 34.8977 423.471 35.9773C421.392 37.0455 418.954 37.5795 416.159 37.5795C413.375 37.5795 410.943 37.0455 408.863 35.9773C406.784 34.8977 405.17 33.4205 404.022 31.5455C402.875 29.6591 402.301 27.4943 402.301 25.0511V2.09091H407.568V24.625C407.568 26.2045 407.915 27.608 408.608 28.8352C409.312 30.0625 410.307 31.0284 411.591 31.733C412.875 32.4261 414.397 32.7727 416.159 32.7727C417.932 32.7727 419.46 32.4261 420.744 31.733C422.04 31.0284 423.028 30.0625 423.71 28.8352C424.403 27.608 424.75 26.2045 424.75 24.625V2.09091ZM441.419 21.4545V37H436.322V10.8182H441.214V15.0795H441.538C442.141 13.6932 443.084 12.5795 444.368 11.7386C445.663 10.8977 447.294 10.4773 449.26 10.4773C451.044 10.4773 452.606 10.8523 453.947 11.6023C455.288 12.3409 456.328 13.4432 457.067 14.9091C457.805 16.375 458.175 18.1875 458.175 20.3466V37H453.078V20.9602C453.078 19.0625 452.584 17.5795 451.595 16.5114C450.606 15.4318 449.249 14.892 447.521 14.892C446.339 14.892 445.288 15.1477 444.368 15.6591C443.459 16.1705 442.737 16.9205 442.203 17.9091C441.68 18.8864 441.419 20.0682 441.419 21.4545ZM476.272 10.8182V14.9091H461.97V10.8182H476.272ZM465.806 4.54545H470.902V29.3125C470.902 30.3011 471.05 31.0455 471.345 31.5455C471.641 32.0341 472.022 32.3693 472.487 32.5511C472.965 32.7216 473.482 32.8068 474.039 32.8068C474.448 32.8068 474.806 32.7784 475.112 32.7216C475.419 32.6648 475.658 32.6193 475.828 32.5852L476.749 36.7955C476.453 36.9091 476.033 37.0227 475.487 37.1364C474.942 37.2614 474.26 37.3295 473.442 37.3409C472.101 37.3636 470.851 37.125 469.692 36.625C468.533 36.125 467.595 35.3523 466.879 34.3068C466.164 33.2614 465.806 31.9489 465.806 30.3693V4.54545ZM480.949 37V10.8182H486.046V37H480.949ZM483.523 6.77841C482.637 6.77841 481.875 6.48295 481.239 5.89204C480.614 5.28977 480.302 4.57386 480.302 3.74432C480.302 2.90341 480.614 2.1875 481.239 1.59659C481.875 0.994317 482.637 0.693181 483.523 0.693181C484.409 0.693181 485.165 0.994317 485.79 1.59659C486.427 2.1875 486.745 2.90341 486.745 3.74432C486.745 4.57386 486.427 5.28977 485.79 5.89204C485.165 6.48295 484.409 6.77841 483.523 6.77841ZM504.164 10.8182V14.9091H489.863V10.8182H504.164ZM493.698 4.54545H498.795V29.3125C498.795 30.3011 498.942 31.0455 499.238 31.5455C499.533 32.0341 499.914 32.3693 500.38 32.5511C500.857 32.7216 501.374 32.8068 501.931 32.8068C502.34 32.8068 502.698 32.7784 503.005 32.7216C503.312 32.6648 503.55 32.6193 503.721 32.5852L504.641 36.7955C504.346 36.9091 503.925 37.0227 503.38 37.1364C502.834 37.2614 502.153 37.3295 501.334 37.3409C499.994 37.3636 498.744 37.125 497.584 36.625C496.425 36.125 495.488 35.3523 494.772 34.3068C494.056 33.2614 493.698 31.9489 493.698 30.3693V4.54545ZM514.501 2.09091V37H509.404V2.09091H514.501ZM531.681 37.5284C529.102 37.5284 526.88 36.9773 525.017 35.875C523.164 34.7614 521.733 33.1989 520.721 31.1875C519.721 29.1648 519.221 26.7955 519.221 24.0795C519.221 21.3977 519.721 19.0341 520.721 16.9886C521.733 14.9432 523.142 13.3466 524.949 12.1989C526.767 11.0511 528.892 10.4773 531.324 10.4773C532.801 10.4773 534.233 10.7216 535.619 11.2102C537.005 11.6989 538.25 12.4659 539.352 13.5114C540.454 14.5568 541.324 15.9148 541.96 17.5852C542.596 19.2443 542.914 21.2614 542.914 23.6364V25.4432H522.102V21.625H537.92C537.92 20.2841 537.647 19.0966 537.102 18.0625C536.556 17.017 535.789 16.1932 534.801 15.5909C533.824 14.9886 532.676 14.6875 531.358 14.6875C529.926 14.6875 528.676 15.0398 527.608 15.7443C526.551 16.4375 525.733 17.3466 525.153 18.4716C524.585 19.5852 524.301 20.7955 524.301 22.1023V25.0852C524.301 26.8352 524.608 28.3239 525.221 29.5511C525.846 30.7784 526.716 31.7159 527.829 32.3636C528.943 33 530.244 33.3182 531.733 33.3182C532.699 33.3182 533.579 33.1818 534.375 32.9091C535.17 32.625 535.858 32.2045 536.437 31.6477C537.017 31.0909 537.46 30.4034 537.767 29.5852L542.591 30.4545C542.204 31.875 541.511 33.1193 540.511 34.1875C539.522 35.2443 538.278 36.0682 536.778 36.6591C535.289 37.2386 533.591 37.5284 531.681 37.5284ZM557.41 37.5114C555.297 37.5114 553.41 36.9716 551.751 35.892C550.104 34.8011 548.808 33.25 547.865 31.2386C546.933 29.2159 546.467 26.7898 546.467 23.9602C546.467 21.1307 546.939 18.7102 547.882 16.6989C548.837 14.6875 550.143 13.1477 551.802 12.0795C553.462 11.0114 555.342 10.4773 557.445 10.4773C559.07 10.4773 560.376 10.75 561.365 11.2955C562.365 11.8295 563.138 12.4545 563.683 13.1705C564.24 13.8864 564.672 14.517 564.979 15.0625H565.285V2.09091H570.382V37H565.405V32.9261H564.979C564.672 33.483 564.229 34.1193 563.649 34.8352C563.081 35.5511 562.297 36.1761 561.297 36.7102C560.297 37.2443 559.001 37.5114 557.41 37.5114ZM558.535 33.1648C560.001 33.1648 561.24 32.7784 562.251 32.0057C563.274 31.2216 564.047 30.1364 564.57 28.75C565.104 27.3636 565.371 25.75 565.371 23.9091C565.371 22.0909 565.109 20.5 564.587 19.1364C564.064 17.7727 563.297 16.7102 562.285 15.9489C561.274 15.1875 560.024 14.8068 558.535 14.8068C557.001 14.8068 555.723 15.2045 554.7 16C553.677 16.7955 552.905 17.8807 552.382 19.2557C551.871 20.6307 551.615 22.1818 551.615 23.9091C551.615 25.6591 551.876 27.233 552.399 28.6307C552.922 30.0284 553.695 31.1364 554.717 31.9545C555.751 32.7614 557.024 33.1648 558.535 33.1648ZM600.661 10.8182V14.9091H586.36V10.8182H600.661ZM590.195 4.54545H595.292V29.3125C595.292 30.3011 595.439 31.0455 595.735 31.5455C596.03 32.0341 596.411 32.3693 596.877 32.5511C597.354 32.7216 597.871 32.8068 598.428 32.8068C598.837 32.8068 599.195 32.7784 599.502 32.7216C599.809 32.6648 600.047 32.6193 600.218 32.5852L601.138 36.7955C600.843 36.9091 600.422 37.0227 599.877 37.1364C599.331 37.2614 598.649 37.3295 597.831 37.3409C596.49 37.3636 595.24 37.125 594.081 36.625C592.922 36.125 591.985 35.3523 591.269 34.3068C590.553 33.2614 590.195 31.9489 590.195 30.3693V4.54545ZM616.086 37.5284C613.631 37.5284 611.489 36.9659 609.66 35.8409C607.83 34.7159 606.41 33.142 605.398 31.1193C604.387 29.0966 603.881 26.733 603.881 24.0284C603.881 21.3125 604.387 18.9375 605.398 16.9034C606.41 14.8693 607.83 13.2898 609.66 12.1648C611.489 11.0398 613.631 10.4773 616.086 10.4773C618.54 10.4773 620.682 11.0398 622.512 12.1648C624.342 13.2898 625.762 14.8693 626.773 16.9034C627.785 18.9375 628.29 21.3125 628.29 24.0284C628.29 26.733 627.785 29.0966 626.773 31.1193C625.762 33.142 624.342 34.7159 622.512 35.8409C620.682 36.9659 618.54 37.5284 616.086 37.5284ZM616.103 33.25C617.694 33.25 619.012 32.8295 620.057 31.9886C621.103 31.1477 621.876 30.0284 622.376 28.6307C622.887 27.233 623.143 25.6932 623.143 24.0114C623.143 22.3409 622.887 20.8068 622.376 19.4091C621.876 18 621.103 16.8693 620.057 16.017C619.012 15.1648 617.694 14.7386 616.103 14.7386C614.501 14.7386 613.171 15.1648 612.114 16.017C611.069 16.8693 610.29 18 609.779 19.4091C609.279 20.8068 609.029 22.3409 609.029 24.0114C609.029 25.6932 609.279 27.233 609.779 28.6307C610.29 30.0284 611.069 31.1477 612.114 31.9886C613.171 32.8295 614.501 33.25 616.103 33.25ZM649.45 28.1193L649.416 21.8977H650.302L660.734 10.8182H666.836L654.939 23.4318H654.137L649.45 28.1193ZM644.762 37V2.09091H649.859V37H644.762ZM661.296 37L651.921 24.5568L655.433 20.9943L667.552 37H661.296ZM670.521 37V10.8182H675.618V37H670.521ZM673.095 6.77841C672.209 6.77841 671.447 6.48295 670.811 5.89204C670.186 5.28977 669.873 4.57386 669.873 3.74432C669.873 2.90341 670.186 2.1875 670.811 1.59659C671.447 0.994317 672.209 0.693181 673.095 0.693181C673.981 0.693181 674.737 0.994317 675.362 1.59659C675.998 2.1875 676.317 2.90341 676.317 3.74432C676.317 4.57386 675.998 5.28977 675.362 5.89204C674.737 6.48295 673.981 6.77841 673.095 6.77841ZM692.543 37.5284C690.009 37.5284 687.827 36.9545 685.997 35.8068C684.179 34.6477 682.781 33.0511 681.804 31.017C680.827 28.983 680.338 26.6534 680.338 24.0284C680.338 21.3693 680.838 19.0227 681.838 16.9886C682.838 14.9432 684.247 13.3466 686.065 12.1989C687.884 11.0511 690.026 10.4773 692.492 10.4773C694.48 10.4773 696.253 10.8466 697.81 11.5852C699.367 12.3125 700.622 13.3352 701.577 14.6534C702.543 15.9716 703.117 17.5114 703.298 19.2727H698.338C698.065 18.0455 697.44 16.9886 696.463 16.1023C695.497 15.2159 694.202 14.7727 692.577 14.7727C691.156 14.7727 689.912 15.1477 688.844 15.8977C687.787 16.6364 686.963 17.6932 686.372 19.0682C685.781 20.4318 685.486 22.0455 685.486 23.9091C685.486 25.8182 685.776 27.4659 686.355 28.8523C686.935 30.2386 687.753 31.3125 688.81 32.0739C689.878 32.8352 691.134 33.2159 692.577 33.2159C693.543 33.2159 694.418 33.0398 695.202 32.6875C695.997 32.3239 696.662 31.8068 697.196 31.1364C697.742 30.4659 698.122 29.6591 698.338 28.7159H703.298C703.117 30.4091 702.565 31.9205 701.645 33.25C700.724 34.5795 699.492 35.625 697.946 36.3864C696.412 37.1477 694.611 37.5284 692.543 37.5284ZM712.476 28.1193L712.442 21.8977H713.328L723.76 10.8182H729.863L717.965 23.4318H717.164L712.476 28.1193ZM707.789 37V2.09091H712.885V37H707.789ZM724.323 37L714.948 24.5568L718.459 20.9943L730.578 37H724.323ZM764.91 17.2102L760.291 18.0284C760.097 17.4375 759.791 16.875 759.37 16.3409C758.961 15.8068 758.404 15.3693 757.7 15.0284C756.995 14.6875 756.114 14.517 755.058 14.517C753.614 14.517 752.41 14.8409 751.444 15.4886C750.478 16.125 749.995 16.9489 749.995 17.9602C749.995 18.8352 750.319 19.5398 750.967 20.0739C751.614 20.608 752.66 21.0455 754.103 21.3864L758.262 22.3409C760.671 22.8977 762.467 23.7557 763.648 24.9148C764.83 26.0739 765.421 27.5795 765.421 29.4318C765.421 31 764.967 32.3977 764.058 33.625C763.16 34.8409 761.904 35.7955 760.291 36.4886C758.688 37.1818 756.83 37.5284 754.717 37.5284C751.785 37.5284 749.393 36.9034 747.541 35.6534C745.688 34.392 744.552 32.6023 744.131 30.2841L749.058 29.5341C749.364 30.8182 749.995 31.7898 750.95 32.4489C751.904 33.0966 753.148 33.4205 754.683 33.4205C756.353 33.4205 757.688 33.0739 758.688 32.3807C759.688 31.6761 760.188 30.8182 760.188 29.8068C760.188 28.9886 759.881 28.3011 759.268 27.7443C758.666 27.1875 757.739 26.767 756.489 26.483L752.058 25.5114C749.614 24.9545 747.808 24.0682 746.637 22.8523C745.478 21.6364 744.898 20.0966 744.898 18.233C744.898 16.6875 745.33 15.3352 746.194 14.1761C747.058 13.017 748.251 12.1136 749.773 11.4659C751.296 10.8068 753.041 10.4773 755.006 10.4773C757.836 10.4773 760.063 11.0909 761.688 12.3182C763.313 13.5341 764.387 15.1648 764.91 17.2102ZM782.287 10.8182V14.9091H767.985V10.8182H782.287ZM771.821 4.54545H776.917V29.3125C776.917 30.3011 777.065 31.0455 777.36 31.5455C777.656 32.0341 778.037 32.3693 778.502 32.5511C778.98 32.7216 779.497 32.8068 780.054 32.8068C780.463 32.8068 780.821 32.7784 781.127 32.7216C781.434 32.6648 781.673 32.6193 781.843 32.5852L782.764 36.7955C782.468 36.9091 782.048 37.0227 781.502 37.1364C780.957 37.2614 780.275 37.3295 779.457 37.3409C778.116 37.3636 776.866 37.125 775.707 36.625C774.548 36.125 773.61 35.3523 772.894 34.3068C772.179 33.2614 771.821 31.9489 771.821 30.3693V4.54545ZM794.584 37.5795C792.925 37.5795 791.425 37.2727 790.084 36.6591C788.743 36.0341 787.68 35.1307 786.896 33.9489C786.123 32.767 785.737 31.3182 785.737 29.6023C785.737 28.125 786.021 26.9091 786.589 25.9545C787.157 25 787.925 24.2443 788.89 23.6875C789.856 23.1307 790.936 22.7102 792.129 22.4261C793.322 22.142 794.538 21.9261 795.777 21.7784C797.345 21.5966 798.618 21.4489 799.595 21.3352C800.572 21.2102 801.282 21.0114 801.726 20.7386C802.169 20.4659 802.39 20.0227 802.39 19.4091V19.2898C802.39 17.8011 801.97 16.6477 801.129 15.8295C800.3 15.0114 799.061 14.6023 797.413 14.6023C795.697 14.6023 794.345 14.983 793.356 15.7443C792.379 16.4943 791.703 17.3295 791.328 18.25L786.538 17.1591C787.106 15.5682 787.936 14.2841 789.027 13.3068C790.129 12.3182 791.396 11.6023 792.828 11.1591C794.26 10.7045 795.765 10.4773 797.345 10.4773C798.39 10.4773 799.498 10.6023 800.669 10.8523C801.851 11.0909 802.953 11.5341 803.976 12.1818C805.01 12.8295 805.856 13.7557 806.515 14.9602C807.175 16.1534 807.504 17.7045 807.504 19.6136V37H802.527V33.4205H802.322C801.993 34.0795 801.498 34.7273 800.839 35.3636C800.18 36 799.334 36.5284 798.3 36.9489C797.265 37.3693 796.027 37.5795 794.584 37.5795ZM795.692 33.4886C797.101 33.4886 798.305 33.2102 799.305 32.6534C800.317 32.0966 801.084 31.3693 801.606 30.4716C802.14 29.5625 802.407 28.5909 802.407 27.5568V24.1818C802.226 24.3636 801.873 24.5341 801.351 24.6932C800.839 24.8409 800.254 24.9716 799.595 25.0852C798.936 25.1875 798.294 25.2841 797.669 25.375C797.044 25.4545 796.521 25.5227 796.101 25.5795C795.112 25.7045 794.209 25.9148 793.39 26.2102C792.584 26.5057 791.936 26.9318 791.447 27.4886C790.97 28.0341 790.731 28.7614 790.731 29.6705C790.731 30.9318 791.197 31.8864 792.129 32.5341C793.061 33.1705 794.248 33.4886 795.692 33.4886ZM813.332 37V10.8182H818.259V14.9773H818.531C819.009 13.5682 819.849 12.4602 821.054 11.6534C822.27 10.8352 823.645 10.4261 825.179 10.4261C825.497 10.4261 825.872 10.4375 826.304 10.4602C826.747 10.483 827.094 10.5114 827.344 10.5455V15.4205C827.139 15.3636 826.776 15.3011 826.253 15.233C825.73 15.1534 825.207 15.1136 824.685 15.1136C823.48 15.1136 822.406 15.3693 821.463 15.8807C820.531 16.3807 819.793 17.0795 819.247 17.9773C818.702 18.8636 818.429 19.875 818.429 21.0114V37H813.332ZM844.563 10.8182V14.9091H830.262V10.8182H844.563ZM834.097 4.54545H839.193V29.3125C839.193 30.3011 839.341 31.0455 839.637 31.5455C839.932 32.0341 840.313 32.3693 840.779 32.5511C841.256 32.7216 841.773 32.8068 842.33 32.8068C842.739 32.8068 843.097 32.7784 843.404 32.7216C843.71 32.6648 843.949 32.6193 844.12 32.5852L845.04 36.7955C844.745 36.9091 844.324 37.0227 843.779 37.1364C843.233 37.2614 842.551 37.3295 841.733 37.3409C840.392 37.3636 839.142 37.125 837.983 36.625C836.824 36.125 835.887 35.3523 835.171 34.3068C834.455 33.2614 834.097 31.9489 834.097 30.3693V4.54545ZM872.268 37.5284C869.688 37.5284 867.467 36.9773 865.603 35.875C863.751 34.7614 862.319 33.1989 861.307 31.1875C860.307 29.1648 859.807 26.7955 859.807 24.0795C859.807 21.3977 860.307 19.0341 861.307 16.9886C862.319 14.9432 863.728 13.3466 865.535 12.1989C867.353 11.0511 869.478 10.4773 871.91 10.4773C873.387 10.4773 874.819 10.7216 876.205 11.2102C877.592 11.6989 878.836 12.4659 879.938 13.5114C881.04 14.5568 881.91 15.9148 882.546 17.5852C883.182 19.2443 883.501 21.2614 883.501 23.6364V25.4432H862.688V21.625H878.506C878.506 20.2841 878.234 19.0966 877.688 18.0625C877.143 17.017 876.376 16.1932 875.387 15.5909C874.41 14.9886 873.262 14.6875 871.944 14.6875C870.512 14.6875 869.262 15.0398 868.194 15.7443C867.137 16.4375 866.319 17.3466 865.739 18.4716C865.171 19.5852 864.887 20.7955 864.887 22.1023V25.0852C864.887 26.8352 865.194 28.3239 865.807 29.5511C866.432 30.7784 867.302 31.7159 868.415 32.3636C869.529 33 870.83 33.3182 872.319 33.3182C873.285 33.3182 874.165 33.1818 874.961 32.9091C875.756 32.625 876.444 32.2045 877.023 31.6477C877.603 31.0909 878.046 30.4034 878.353 29.5852L883.177 30.4545C882.79 31.875 882.097 33.1193 881.097 34.1875C880.109 35.2443 878.864 36.0682 877.364 36.6591C875.876 37.2386 874.177 37.5284 872.268 37.5284ZM909.843 10.8182L900.349 37H894.894L885.383 10.8182H890.855L897.485 30.9659H897.758L904.372 10.8182H909.843ZM924.066 37.5284C921.487 37.5284 919.265 36.9773 917.402 35.875C915.549 34.7614 914.118 33.1989 913.106 31.1875C912.106 29.1648 911.606 26.7955 911.606 24.0795C911.606 21.3977 912.106 19.0341 913.106 16.9886C914.118 14.9432 915.527 13.3466 917.334 12.1989C919.152 11.0511 921.277 10.4773 923.709 10.4773C925.186 10.4773 926.618 10.7216 928.004 11.2102C929.39 11.6989 930.635 12.4659 931.737 13.5114C932.839 14.5568 933.709 15.9148 934.345 17.5852C934.981 19.2443 935.299 21.2614 935.299 23.6364V25.4432H914.487V21.625H930.305C930.305 20.2841 930.032 19.0966 929.487 18.0625C928.941 17.017 928.174 16.1932 927.186 15.5909C926.209 14.9886 925.061 14.6875 923.743 14.6875C922.311 14.6875 921.061 15.0398 919.993 15.7443C918.936 16.4375 918.118 17.3466 917.538 18.4716C916.97 19.5852 916.686 20.7955 916.686 22.1023V25.0852C916.686 26.8352 916.993 28.3239 917.606 29.5511C918.231 30.7784 919.101 31.7159 920.214 32.3636C921.328 33 922.629 33.3182 924.118 33.3182C925.084 33.3182 925.964 33.1818 926.76 32.9091C927.555 32.625 928.243 32.2045 928.822 31.6477C929.402 31.0909 929.845 30.4034 930.152 29.5852L934.976 30.4545C934.589 31.875 933.896 33.1193 932.896 34.1875C931.907 35.2443 930.663 36.0682 929.163 36.6591C927.674 37.2386 925.976 37.5284 924.066 37.5284ZM939.994 37V10.8182H944.92V14.9773H945.193C945.67 13.5682 946.511 12.4602 947.716 11.6534C948.932 10.8352 950.307 10.4261 951.841 10.4261C952.159 10.4261 952.534 10.4375 952.966 10.4602C953.409 10.483 953.756 10.5114 954.006 10.5455V15.4205C953.801 15.3636 953.437 15.3011 952.915 15.233C952.392 15.1534 951.869 15.1136 951.347 15.1136C950.142 15.1136 949.068 15.3693 948.125 15.8807C947.193 16.3807 946.454 17.0795 945.909 17.9773C945.364 18.8636 945.091 19.875 945.091 21.0114V37H939.994ZM961.475 46.8182C960.713 46.8182 960.02 46.7557 959.395 46.6307C958.77 46.517 958.304 46.392 957.997 46.2557L959.225 42.0795C960.156 42.3295 960.986 42.4375 961.713 42.4034C962.441 42.3693 963.083 42.0966 963.639 41.5852C964.208 41.0739 964.708 40.2386 965.139 39.0795L965.77 37.3409L956.191 10.8182H961.645L968.276 31.1364H968.548L975.179 10.8182H980.651L969.861 40.4943C969.361 41.858 968.725 43.0114 967.952 43.9545C967.179 44.9091 966.259 45.625 965.191 46.1023C964.122 46.5795 962.884 46.8182 961.475 46.8182ZM1001.32 21.4545V37H996.224V10.8182H1001.12V15.0795H1001.44C1002.04 13.6932 1002.99 12.5795 1004.27 11.7386C1005.56 10.8977 1007.2 10.4773 1009.16 10.4773C1010.95 10.4773 1012.51 10.8523 1013.85 11.6023C1015.19 12.3409 1016.23 13.4432 1016.97 14.9091C1017.71 16.375 1018.08 18.1875 1018.08 20.3466V37H1012.98V20.9602C1012.98 19.0625 1012.49 17.5795 1011.5 16.5114C1010.51 15.4318 1009.15 14.892 1007.42 14.892C1006.24 14.892 1005.19 15.1477 1004.27 15.6591C1003.36 16.1705 1002.64 16.9205 1002.1 17.9091C1001.58 18.8864 1001.32 20.0682 1001.32 21.4545ZM1035.24 37.5284C1032.66 37.5284 1030.43 36.9773 1028.57 35.875C1026.72 34.7614 1025.29 33.1989 1024.28 31.1875C1023.28 29.1648 1022.78 26.7955 1022.78 24.0795C1022.78 21.3977 1023.28 19.0341 1024.28 16.9886C1025.29 14.9432 1026.7 13.3466 1028.5 12.1989C1030.32 11.0511 1032.45 10.4773 1034.88 10.4773C1036.35 10.4773 1037.79 10.7216 1039.17 11.2102C1040.56 11.6989 1041.8 12.4659 1042.91 13.5114C1044.01 14.5568 1044.88 15.9148 1045.51 17.5852C1046.15 19.2443 1046.47 21.2614 1046.47 23.6364V25.4432H1025.66V21.625H1041.47C1041.47 20.2841 1041.2 19.0966 1040.66 18.0625C1040.11 17.017 1039.34 16.1932 1038.35 15.5909C1037.38 14.9886 1036.23 14.6875 1034.91 14.6875C1033.48 14.6875 1032.23 15.0398 1031.16 15.7443C1030.1 16.4375 1029.29 17.3466 1028.71 18.4716C1028.14 19.5852 1027.85 20.7955 1027.85 22.1023V25.0852C1027.85 26.8352 1028.16 28.3239 1028.78 29.5511C1029.4 30.7784 1030.27 31.7159 1031.38 32.3636C1032.5 33 1033.8 33.3182 1035.29 33.3182C1036.25 33.3182 1037.13 33.1818 1037.93 32.9091C1038.72 32.625 1039.41 32.2045 1039.99 31.6477C1040.57 31.0909 1041.01 30.4034 1041.32 29.5852L1046.14 30.4545C1045.76 31.875 1045.06 33.1193 1044.06 34.1875C1043.08 35.2443 1041.83 36.0682 1040.33 36.6591C1038.84 37.2386 1037.14 37.5284 1035.24 37.5284ZM1056.79 37L1049.09 10.8182H1054.35L1059.49 30.0455H1059.74L1064.89 10.8182H1070.16L1075.27 29.9602H1075.53L1080.62 10.8182H1085.89L1078.2 37H1073L1067.68 18.0966H1067.29L1061.97 37H1056.79ZM59.6321 106.818V70.8182H64.6093V75.0625H65.0355C65.3309 74.517 65.7571 73.8864 66.3139 73.1705C66.8707 72.4545 67.6434 71.8295 68.6321 71.2955C69.6207 70.75 70.9275 70.4773 72.5525 70.4773C74.6662 70.4773 76.5525 71.0114 78.2116 72.0795C79.8707 73.1477 81.1718 74.6875 82.115 76.6989C83.0696 78.7102 83.5468 81.1307 83.5468 83.9602C83.5468 86.7898 83.0753 89.2159 82.1321 91.2386C81.1889 93.25 79.8934 94.8011 78.2457 95.892C76.598 96.9716 74.7173 97.5114 72.6037 97.5114C71.0128 97.5114 69.7116 97.2443 68.7003 96.7102C67.7003 96.1761 66.9162 95.5511 66.348 94.8352C65.7798 94.1193 65.3423 93.483 65.0355 92.9261H64.7287V106.818H59.6321ZM64.6264 83.9091C64.6264 85.75 64.8934 87.3636 65.4275 88.75C65.9616 90.1364 66.7343 91.2216 67.7457 92.0057C68.7571 92.7784 69.9957 93.1648 71.4616 93.1648C72.9843 93.1648 74.2571 92.7614 75.2798 91.9545C76.3025 91.1364 77.0753 90.0284 77.598 88.6307C78.1321 87.233 78.3991 85.6591 78.3991 83.9091C78.3991 82.1818 78.1378 80.6307 77.615 79.2557C77.1037 77.8807 76.3309 76.7955 75.2968 76C74.2741 75.2045 72.9957 74.8068 71.4616 74.8068C69.9843 74.8068 68.7343 75.1875 67.7116 75.9489C66.7003 76.7102 65.9332 77.7727 65.4105 79.1364C64.8878 80.5 64.6264 82.0909 64.6264 83.9091ZM88.2971 97V70.8182H93.2232V74.9773H93.4959C93.9732 73.5682 94.8141 72.4602 96.0187 71.6534C97.2346 70.8352 98.6096 70.4261 100.144 70.4261C100.462 70.4261 100.837 70.4375 101.269 70.4602C101.712 70.483 102.058 70.5114 102.308 70.5455V75.4205C102.104 75.3636 101.74 75.3011 101.218 75.233C100.695 75.1534 100.172 75.1136 99.6494 75.1136C98.4448 75.1136 97.3709 75.3693 96.4278 75.8807C95.4959 76.3807 94.7573 77.0795 94.2119 77.9773C93.6664 78.8636 93.3937 79.875 93.3937 81.0114V97H88.2971ZM115.85 97.5284C113.395 97.5284 111.253 96.9659 109.424 95.8409C107.594 94.7159 106.174 93.142 105.162 91.1193C104.151 89.0966 103.645 86.733 103.645 84.0284C103.645 81.3125 104.151 78.9375 105.162 76.9034C106.174 74.8693 107.594 73.2898 109.424 72.1648C111.253 71.0398 113.395 70.4773 115.85 70.4773C118.304 70.4773 120.446 71.0398 122.276 72.1648C124.106 73.2898 125.526 74.8693 126.537 76.9034C127.549 78.9375 128.054 81.3125 128.054 84.0284C128.054 86.733 127.549 89.0966 126.537 91.1193C125.526 93.142 124.106 94.7159 122.276 95.8409C120.446 96.9659 118.304 97.5284 115.85 97.5284ZM115.867 93.25C117.458 93.25 118.776 92.8295 119.821 91.9886C120.867 91.1477 121.64 90.0284 122.14 88.6307C122.651 87.233 122.907 85.6932 122.907 84.0114C122.907 82.3409 122.651 80.8068 122.14 79.4091C121.64 78 120.867 76.8693 119.821 76.017C118.776 75.1648 117.458 74.7386 115.867 74.7386C114.265 74.7386 112.935 75.1648 111.878 76.017C110.833 76.8693 110.054 78 109.543 79.4091C109.043 80.8068 108.793 82.3409 108.793 84.0114C108.793 85.6932 109.043 87.233 109.543 88.6307C110.054 90.0284 110.833 91.1477 111.878 91.9886C112.935 92.8295 114.265 93.25 115.867 93.25ZM132.783 70.8182H137.88V98.7045C137.88 100.455 137.562 101.932 136.925 103.136C136.3 104.341 135.369 105.256 134.13 105.881C132.903 106.506 131.386 106.818 129.579 106.818C129.397 106.818 129.226 106.818 129.067 106.818C128.897 106.818 128.721 106.813 128.539 106.801V102.42C128.698 102.42 128.84 102.42 128.965 102.42C129.079 102.42 129.209 102.42 129.357 102.42C130.562 102.42 131.431 102.097 131.965 101.449C132.511 100.813 132.783 99.8864 132.783 98.6705V70.8182ZM135.306 66.7784C134.42 66.7784 133.658 66.483 133.022 65.892C132.397 65.2898 132.084 64.5739 132.084 63.7443C132.084 62.9034 132.397 62.1875 133.022 61.5966C133.658 60.9943 134.42 60.6932 135.306 60.6932C136.192 60.6932 136.948 60.9943 137.573 61.5966C138.209 62.1875 138.528 62.9034 138.528 63.7443C138.528 64.5739 138.209 65.2898 137.573 65.892C136.948 66.483 136.192 66.7784 135.306 66.7784ZM155.061 97.5284C152.481 97.5284 150.259 96.9773 148.396 95.875C146.543 94.7614 145.112 93.1989 144.1 91.1875C143.1 89.1648 142.6 86.7955 142.6 84.0795C142.6 81.3977 143.1 79.0341 144.1 76.9886C145.112 74.9432 146.521 73.3466 148.328 72.1989C150.146 71.0511 152.271 70.4773 154.703 70.4773C156.18 70.4773 157.612 70.7216 158.998 71.2102C160.384 71.6989 161.629 72.4659 162.731 73.5114C163.833 74.5568 164.703 75.9148 165.339 77.5852C165.975 79.2443 166.293 81.2614 166.293 83.6364V85.4432H145.481V81.625H161.299C161.299 80.2841 161.026 79.0966 160.481 78.0625C159.936 77.017 159.168 76.1932 158.18 75.5909C157.203 74.9886 156.055 74.6875 154.737 74.6875C153.305 74.6875 152.055 75.0398 150.987 75.7443C149.93 76.4375 149.112 77.3466 148.532 78.4716C147.964 79.5852 147.68 80.7955 147.68 82.1023V85.0852C147.68 86.8352 147.987 88.3239 148.6 89.5511C149.225 90.7784 150.095 91.7159 151.208 92.3636C152.322 93 153.623 93.3182 155.112 93.3182C156.078 93.3182 156.958 93.1818 157.754 92.9091C158.549 92.625 159.237 92.2045 159.816 91.6477C160.396 91.0909 160.839 90.4034 161.146 89.5852L165.97 90.4545C165.583 91.875 164.89 93.1193 163.89 94.1875C162.901 95.2443 161.657 96.0682 160.157 96.6591C158.668 97.2386 156.97 97.5284 155.061 97.5284ZM182.017 97.5284C179.483 97.5284 177.301 96.9545 175.471 95.8068C173.653 94.6477 172.255 93.0511 171.278 91.017C170.301 88.983 169.812 86.6534 169.812 84.0284C169.812 81.3693 170.312 79.0227 171.312 76.9886C172.312 74.9432 173.721 73.3466 175.539 72.1989C177.358 71.0511 179.5 70.4773 181.966 70.4773C183.954 70.4773 185.727 70.8466 187.284 71.5852C188.841 72.3125 190.096 73.3352 191.051 74.6534C192.017 75.9716 192.591 77.5114 192.772 79.2727H187.812C187.539 78.0455 186.914 76.9886 185.937 76.1023C184.971 75.2159 183.676 74.7727 182.051 74.7727C180.63 74.7727 179.386 75.1477 178.318 75.8977C177.261 76.6364 176.437 77.6932 175.846 79.0682C175.255 80.4318 174.96 82.0455 174.96 83.9091C174.96 85.8182 175.25 87.4659 175.829 88.8523C176.409 90.2386 177.227 91.3125 178.284 92.0739C179.352 92.8352 180.608 93.2159 182.051 93.2159C183.017 93.2159 183.892 93.0398 184.676 92.6875C185.471 92.3239 186.136 91.8068 186.67 91.1364C187.216 90.4659 187.596 89.6591 187.812 88.7159H192.772C192.591 90.4091 192.039 91.9205 191.119 93.25C190.199 94.5795 188.966 95.625 187.42 96.3864C185.886 97.1477 184.085 97.5284 182.017 97.5284ZM209.484 70.8182V74.9091H195.183V70.8182H209.484ZM199.018 64.5455H204.115V89.3125C204.115 90.3011 204.263 91.0455 204.558 91.5455C204.854 92.0341 205.234 92.3693 205.7 92.5511C206.177 92.7216 206.695 92.8068 207.251 92.8068C207.66 92.8068 208.018 92.7784 208.325 92.7216C208.632 92.6648 208.871 92.6193 209.041 92.5852L209.962 96.7955C209.666 96.9091 209.246 97.0227 208.7 97.1364C208.155 97.2614 207.473 97.3295 206.655 97.3409C205.314 97.3636 204.064 97.125 202.905 96.625C201.746 96.125 200.808 95.3523 200.092 94.3068C199.376 93.2614 199.018 91.9489 199.018 90.3693V64.5455ZM233.525 97.5795C231.865 97.5795 230.365 97.2727 229.025 96.6591C227.684 96.0341 226.621 95.1307 225.837 93.9489C225.064 92.767 224.678 91.3182 224.678 89.6023C224.678 88.125 224.962 86.9091 225.53 85.9545C226.098 85 226.865 84.2443 227.831 83.6875C228.797 83.1307 229.877 82.7102 231.07 82.4261C232.263 82.142 233.479 81.9261 234.718 81.7784C236.286 81.5966 237.559 81.4489 238.536 81.3352C239.513 81.2102 240.223 81.0114 240.667 80.7386C241.11 80.4659 241.331 80.0227 241.331 79.4091V79.2898C241.331 77.8011 240.911 76.6477 240.07 75.8295C239.24 75.0114 238.002 74.6023 236.354 74.6023C234.638 74.6023 233.286 74.983 232.297 75.7443C231.32 76.4943 230.644 77.3295 230.269 78.25L225.479 77.1591C226.047 75.5682 226.877 74.2841 227.968 73.3068C229.07 72.3182 230.337 71.6023 231.769 71.1591C233.201 70.7045 234.706 70.4773 236.286 70.4773C237.331 70.4773 238.439 70.6023 239.61 70.8523C240.792 71.0909 241.894 71.5341 242.917 72.1818C243.951 72.8295 244.797 73.7557 245.456 74.9602C246.115 76.1534 246.445 77.7045 246.445 79.6136V97H241.468V93.4205H241.263C240.934 94.0795 240.439 94.7273 239.78 95.3636C239.121 96 238.275 96.5284 237.24 96.9489C236.206 97.3693 234.968 97.5795 233.525 97.5795ZM234.632 93.4886C236.042 93.4886 237.246 93.2102 238.246 92.6534C239.257 92.0966 240.025 91.3693 240.547 90.4716C241.081 89.5625 241.348 88.5909 241.348 87.5568V84.1818C241.167 84.3636 240.814 84.5341 240.292 84.6932C239.78 84.8409 239.195 84.9716 238.536 85.0852C237.877 85.1875 237.235 85.2841 236.61 85.375C235.985 85.4545 235.462 85.5227 235.042 85.5795C234.053 85.7045 233.15 85.9148 232.331 86.2102C231.525 86.5057 230.877 86.9318 230.388 87.4886C229.911 88.0341 229.672 88.7614 229.672 89.6705C229.672 90.9318 230.138 91.8864 231.07 92.5341C232.002 93.1705 233.189 93.4886 234.632 93.4886ZM257.37 81.4545V97H252.273V70.8182H257.165V75.0795H257.489C258.091 73.6932 259.035 72.5795 260.319 71.7386C261.614 70.8977 263.245 70.4773 265.211 70.4773C266.995 70.4773 268.557 70.8523 269.898 71.6023C271.239 72.3409 272.279 73.4432 273.018 74.9091C273.756 76.375 274.126 78.1875 274.126 80.3466V97H269.029V80.9602C269.029 79.0625 268.535 77.5795 267.546 76.5114C266.557 75.4318 265.199 74.892 263.472 74.892C262.29 74.892 261.239 75.1477 260.319 75.6591C259.41 76.1705 258.688 76.9205 258.154 77.9091C257.631 78.8864 257.37 80.0682 257.37 81.4545ZM289.802 97.5114C287.688 97.5114 285.802 96.9716 284.143 95.892C282.495 94.8011 281.2 93.25 280.256 91.2386C279.325 89.2159 278.859 86.7898 278.859 83.9602C278.859 81.1307 279.33 78.7102 280.274 76.6989C281.228 74.6875 282.535 73.1477 284.194 72.0795C285.853 71.0114 287.734 70.4773 289.836 70.4773C291.461 70.4773 292.768 70.75 293.756 71.2955C294.756 71.8295 295.529 72.4545 296.075 73.1705C296.631 73.8864 297.063 74.517 297.37 75.0625H297.677V62.0909H302.774V97H297.796V92.9261H297.37C297.063 93.483 296.62 94.1193 296.041 94.8352C295.472 95.5511 294.688 96.1761 293.688 96.7102C292.688 97.2443 291.393 97.5114 289.802 97.5114ZM290.927 93.1648C292.393 93.1648 293.631 92.7784 294.643 92.0057C295.666 91.2216 296.438 90.1364 296.961 88.75C297.495 87.3636 297.762 85.75 297.762 83.9091C297.762 82.0909 297.501 80.5 296.978 79.1364C296.455 77.7727 295.688 76.7102 294.677 75.9489C293.666 75.1875 292.416 74.8068 290.927 74.8068C289.393 74.8068 288.114 75.2045 287.092 76C286.069 76.7955 285.296 77.8807 284.774 79.2557C284.262 80.6307 284.006 82.1818 284.006 83.9091C284.006 85.6591 284.268 87.233 284.791 88.6307C285.313 90.0284 286.086 91.1364 287.109 91.9545C288.143 92.7614 289.416 93.1648 290.927 93.1648ZM331.859 97.5284C329.325 97.5284 327.143 96.9545 325.314 95.8068C323.496 94.6477 322.098 93.0511 321.121 91.017C320.143 88.983 319.655 86.6534 319.655 84.0284C319.655 81.3693 320.155 79.0227 321.155 76.9886C322.155 74.9432 323.564 73.3466 325.382 72.1989C327.2 71.0511 329.342 70.4773 331.808 70.4773C333.797 70.4773 335.569 70.8466 337.126 71.5852C338.683 72.3125 339.939 73.3352 340.893 74.6534C341.859 75.9716 342.433 77.5114 342.615 79.2727H337.655C337.382 78.0455 336.757 76.9886 335.78 76.1023C334.814 75.2159 333.518 74.7727 331.893 74.7727C330.473 74.7727 329.229 75.1477 328.16 75.8977C327.104 76.6364 326.28 77.6932 325.689 79.0682C325.098 80.4318 324.802 82.0455 324.802 83.9091C324.802 85.8182 325.092 87.4659 325.672 88.8523C326.251 90.2386 327.069 91.3125 328.126 92.0739C329.194 92.8352 330.45 93.2159 331.893 93.2159C332.859 93.2159 333.734 93.0398 334.518 92.6875C335.314 92.3239 335.979 91.8068 336.513 91.1364C337.058 90.4659 337.439 89.6591 337.655 88.7159H342.615C342.433 90.4091 341.882 91.9205 340.962 93.25C340.041 94.5795 338.808 95.625 337.263 96.3864C335.729 97.1477 333.927 97.5284 331.859 97.5284ZM354.725 97.5795C353.065 97.5795 351.565 97.2727 350.225 96.6591C348.884 96.0341 347.821 95.1307 347.037 93.9489C346.264 92.767 345.878 91.3182 345.878 89.6023C345.878 88.125 346.162 86.9091 346.73 85.9545C347.298 85 348.065 84.2443 349.031 83.6875C349.997 83.1307 351.077 82.7102 352.27 82.4261C353.463 82.142 354.679 81.9261 355.918 81.7784C357.486 81.5966 358.759 81.4489 359.736 81.3352C360.713 81.2102 361.423 81.0114 361.867 80.7386C362.31 80.4659 362.531 80.0227 362.531 79.4091V79.2898C362.531 77.8011 362.111 76.6477 361.27 75.8295C360.44 75.0114 359.202 74.6023 357.554 74.6023C355.838 74.6023 354.486 74.983 353.497 75.7443C352.52 76.4943 351.844 77.3295 351.469 78.25L346.679 77.1591C347.247 75.5682 348.077 74.2841 349.168 73.3068C350.27 72.3182 351.537 71.6023 352.969 71.1591C354.401 70.7045 355.906 70.4773 357.486 70.4773C358.531 70.4773 359.639 70.6023 360.81 70.8523C361.992 71.0909 363.094 71.5341 364.117 72.1818C365.151 72.8295 365.997 73.7557 366.656 74.9602C367.315 76.1534 367.645 77.7045 367.645 79.6136V97H362.668V93.4205H362.463C362.134 94.0795 361.639 94.7273 360.98 95.3636C360.321 96 359.475 96.5284 358.44 96.9489C357.406 97.3693 356.168 97.5795 354.725 97.5795ZM355.832 93.4886C357.242 93.4886 358.446 93.2102 359.446 92.6534C360.457 92.0966 361.225 91.3693 361.747 90.4716C362.281 89.5625 362.548 88.5909 362.548 87.5568V84.1818C362.367 84.3636 362.014 84.5341 361.492 84.6932C360.98 84.8409 360.395 84.9716 359.736 85.0852C359.077 85.1875 358.435 85.2841 357.81 85.375C357.185 85.4545 356.662 85.5227 356.242 85.5795C355.253 85.7045 354.35 85.9148 353.531 86.2102C352.725 86.5057 352.077 86.9318 351.588 87.4886C351.111 88.0341 350.872 88.7614 350.872 89.6705C350.872 90.9318 351.338 91.8864 352.27 92.5341C353.202 93.1705 354.389 93.4886 355.832 93.4886ZM378.57 81.4545V97H373.473V70.8182H378.365V75.0795H378.689C379.291 73.6932 380.235 72.5795 381.519 71.7386C382.814 70.8977 384.445 70.4773 386.411 70.4773C388.195 70.4773 389.757 70.8523 391.098 71.6023C392.439 72.3409 393.479 73.4432 394.218 74.9091C394.956 76.375 395.326 78.1875 395.326 80.3466V97H390.229V80.9602C390.229 79.0625 389.735 77.5795 388.746 76.5114C387.757 75.4318 386.399 74.892 384.672 74.892C383.49 74.892 382.439 75.1477 381.519 75.6591C380.61 76.1705 379.888 76.9205 379.354 77.9091C378.831 78.8864 378.57 80.0682 378.57 81.4545ZM405.582 62.0909V65.3636C405.582 66.3295 405.4 67.3466 405.036 68.4148C404.684 69.4716 404.184 70.4886 403.536 71.4659C402.888 72.4432 402.127 73.2841 401.252 73.9886L398.729 72.1818C399.4 71.2045 399.979 70.1648 400.468 69.0625C400.968 67.9602 401.218 66.7443 401.218 65.4148V62.0909H405.582ZM422.775 70.8182V74.9091H408.474V70.8182H422.775ZM412.309 64.5455H417.406V89.3125C417.406 90.3011 417.553 91.0455 417.849 91.5455C418.144 92.0341 418.525 92.3693 418.991 92.5511C419.468 92.7216 419.985 92.8068 420.542 92.8068C420.951 92.8068 421.309 92.7784 421.616 92.7216C421.923 92.6648 422.161 92.6193 422.332 92.5852L423.252 96.7955C422.957 96.9091 422.536 97.0227 421.991 97.1364C421.445 97.2614 420.764 97.3295 419.945 97.3409C418.604 97.3636 417.354 97.125 416.195 96.625C415.036 96.125 414.099 95.3523 413.383 94.3068C412.667 93.2614 412.309 91.9489 412.309 90.3693V64.5455ZM439.196 97V70.8182H444.292V97H439.196ZM441.77 66.7784C440.883 66.7784 440.122 66.483 439.486 65.892C438.861 65.2898 438.548 64.5739 438.548 63.7443C438.548 62.9034 438.861 62.1875 439.486 61.5966C440.122 60.9943 440.883 60.6932 441.77 60.6932C442.656 60.6932 443.412 60.9943 444.037 61.5966C444.673 62.1875 444.991 62.9034 444.991 63.7443C444.991 64.5739 444.673 65.2898 444.037 65.892C443.412 66.483 442.656 66.7784 441.77 66.7784ZM450.189 97V70.8182H455.081V75.0795H455.405C455.95 73.6364 456.842 72.5114 458.081 71.7045C459.32 70.8864 460.803 70.4773 462.53 70.4773C464.28 70.4773 465.746 70.8864 466.928 71.7045C468.121 72.5227 469.001 73.6477 469.57 75.0795H469.842C470.467 73.6818 471.462 72.5682 472.825 71.7386C474.189 70.8977 475.814 70.4773 477.7 70.4773C480.075 70.4773 482.013 71.2216 483.513 72.7102C485.024 74.1989 485.78 76.4432 485.78 79.4432V97H480.683V79.9205C480.683 78.1477 480.2 76.8636 479.234 76.0682C478.268 75.2727 477.115 74.875 475.774 74.875C474.115 74.875 472.825 75.3864 471.905 76.4091C470.984 77.4205 470.524 78.7216 470.524 80.3125V97H465.445V79.5966C465.445 78.1761 465.001 77.0341 464.115 76.1705C463.229 75.3068 462.075 74.875 460.655 74.875C459.689 74.875 458.797 75.1307 457.979 75.642C457.172 76.142 456.518 76.8409 456.018 77.7386C455.53 78.6364 455.286 79.6761 455.286 80.858V97H450.189ZM499.27 97.5795C497.611 97.5795 496.111 97.2727 494.77 96.6591C493.429 96.0341 492.367 95.1307 491.583 93.9489C490.81 92.767 490.424 91.3182 490.424 89.6023C490.424 88.125 490.708 86.9091 491.276 85.9545C491.844 85 492.611 84.2443 493.577 83.6875C494.543 83.1307 495.622 82.7102 496.816 82.4261C498.009 82.142 499.225 81.9261 500.463 81.7784C502.031 81.5966 503.304 81.4489 504.281 81.3352C505.259 81.2102 505.969 81.0114 506.412 80.7386C506.855 80.4659 507.077 80.0227 507.077 79.4091V79.2898C507.077 77.8011 506.656 76.6477 505.816 75.8295C504.986 75.0114 503.747 74.6023 502.1 74.6023C500.384 74.6023 499.031 74.983 498.043 75.7443C497.066 76.4943 496.389 77.3295 496.014 78.25L491.225 77.1591C491.793 75.5682 492.622 74.2841 493.713 73.3068C494.816 72.3182 496.083 71.6023 497.514 71.1591C498.946 70.7045 500.452 70.4773 502.031 70.4773C503.077 70.4773 504.185 70.6023 505.355 70.8523C506.537 71.0909 507.639 71.5341 508.662 72.1818C509.696 72.8295 510.543 73.7557 511.202 74.9602C511.861 76.1534 512.191 77.7045 512.191 79.6136V97H507.213V93.4205H507.009C506.679 94.0795 506.185 94.7273 505.526 95.3636C504.867 96 504.02 96.5284 502.986 96.9489C501.952 97.3693 500.713 97.5795 499.27 97.5795ZM500.378 93.4886C501.787 93.4886 502.992 93.2102 503.992 92.6534C505.003 92.0966 505.77 91.3693 506.293 90.4716C506.827 89.5625 507.094 88.5909 507.094 87.5568V84.1818C506.912 84.3636 506.56 84.5341 506.037 84.6932C505.526 84.8409 504.941 84.9716 504.281 85.0852C503.622 85.1875 502.98 85.2841 502.355 85.375C501.73 85.4545 501.208 85.5227 500.787 85.5795C499.799 85.7045 498.895 85.9148 498.077 86.2102C497.27 86.5057 496.622 86.9318 496.134 87.4886C495.656 88.0341 495.418 88.7614 495.418 89.6705C495.418 90.9318 495.884 91.8864 496.816 92.5341C497.747 93.1705 498.935 93.4886 500.378 93.4886ZM528.996 107.364C526.917 107.364 525.127 107.091 523.627 106.545C522.138 106 520.922 105.278 519.979 104.381C519.036 103.483 518.331 102.5 517.866 101.432L522.246 99.625C522.553 100.125 522.962 100.653 523.473 101.21C523.996 101.778 524.701 102.261 525.587 102.659C526.485 103.057 527.638 103.256 529.047 103.256C530.979 103.256 532.576 102.784 533.837 101.841C535.098 100.909 535.729 99.4205 535.729 97.375V92.2273H535.405C535.098 92.7841 534.655 93.4034 534.076 94.0852C533.508 94.767 532.723 95.358 531.723 95.858C530.723 96.358 529.422 96.608 527.82 96.608C525.752 96.608 523.888 96.125 522.229 95.1591C520.581 94.1818 519.275 92.7443 518.309 90.8466C517.354 88.9375 516.877 86.5909 516.877 83.8068C516.877 81.0227 517.348 78.6364 518.292 76.6477C519.246 74.6591 520.553 73.1364 522.212 72.0795C523.871 71.0114 525.752 70.4773 527.854 70.4773C529.479 70.4773 530.792 70.75 531.792 71.2955C532.792 71.8295 533.57 72.4545 534.127 73.1705C534.695 73.8864 535.133 74.517 535.439 75.0625H535.814V70.8182H540.809V97.5795C540.809 99.8295 540.286 101.676 539.241 103.119C538.195 104.563 536.78 105.631 534.996 106.324C533.223 107.017 531.223 107.364 528.996 107.364ZM528.945 92.3807C530.411 92.3807 531.65 92.0398 532.661 91.358C533.684 90.6648 534.456 89.6761 534.979 88.392C535.513 87.0966 535.78 85.5455 535.78 83.7386C535.78 81.9773 535.519 80.4261 534.996 79.0852C534.473 77.7443 533.706 76.6989 532.695 75.9489C531.684 75.1875 530.434 74.8068 528.945 74.8068C527.411 74.8068 526.133 75.2045 525.11 76C524.087 76.7841 523.314 77.8523 522.792 79.2045C522.28 80.5568 522.025 82.0682 522.025 83.7386C522.025 85.4545 522.286 86.9602 522.809 88.2557C523.331 89.5511 524.104 90.5625 525.127 91.2898C526.161 92.017 527.434 92.3807 528.945 92.3807ZM546.684 97V70.8182H551.781V97H546.684ZM549.258 66.7784C548.371 66.7784 547.61 66.483 546.974 65.892C546.349 65.2898 546.036 64.5739 546.036 63.7443C546.036 62.9034 546.349 62.1875 546.974 61.5966C547.61 60.9943 548.371 60.6932 549.258 60.6932C550.144 60.6932 550.9 60.9943 551.525 61.5966C552.161 62.1875 552.479 62.9034 552.479 63.7443C552.479 64.5739 552.161 65.2898 551.525 65.892C550.9 66.483 550.144 66.7784 549.258 66.7784ZM562.774 81.4545V97H557.677V70.8182H562.569V75.0795H562.893C563.495 73.6932 564.438 72.5795 565.723 71.7386C567.018 70.8977 568.649 70.4773 570.615 70.4773C572.399 70.4773 573.961 70.8523 575.302 71.6023C576.643 72.3409 577.683 73.4432 578.421 74.9091C579.16 76.375 579.529 78.1875 579.529 80.3466V97H574.433V80.9602C574.433 79.0625 573.938 77.5795 572.95 76.5114C571.961 75.4318 570.603 74.892 568.876 74.892C567.694 74.892 566.643 75.1477 565.723 75.6591C564.813 76.1705 564.092 76.9205 563.558 77.9091C563.035 78.8864 562.774 80.0682 562.774 81.4545ZM596.689 97.5284C594.109 97.5284 591.888 96.9773 590.024 95.875C588.172 94.7614 586.74 93.1989 585.728 91.1875C584.728 89.1648 584.228 86.7955 584.228 84.0795C584.228 81.3977 584.728 79.0341 585.728 76.9886C586.74 74.9432 588.149 73.3466 589.956 72.1989C591.774 71.0511 593.899 70.4773 596.331 70.4773C597.808 70.4773 599.24 70.7216 600.626 71.2102C602.013 71.6989 603.257 72.4659 604.359 73.5114C605.461 74.5568 606.331 75.9148 606.967 77.5852C607.603 79.2443 607.922 81.2614 607.922 83.6364V85.4432H587.109V81.625H602.927C602.927 80.2841 602.655 79.0966 602.109 78.0625C601.564 77.017 600.797 76.1932 599.808 75.5909C598.831 74.9886 597.683 74.6875 596.365 74.6875C594.933 74.6875 593.683 75.0398 592.615 75.7443C591.558 76.4375 590.74 77.3466 590.16 78.4716C589.592 79.5852 589.308 80.7955 589.308 82.1023V85.0852C589.308 86.8352 589.615 88.3239 590.228 89.5511C590.853 90.7784 591.723 91.7159 592.836 92.3636C593.95 93 595.251 93.3182 596.74 93.3182C597.706 93.3182 598.586 93.1818 599.382 92.9091C600.177 92.625 600.865 92.2045 601.444 91.6477C602.024 91.0909 602.467 90.4034 602.774 89.5852L607.598 90.4545C607.211 91.875 606.518 93.1193 605.518 94.1875C604.53 95.2443 603.285 96.0682 601.785 96.6591C600.297 97.2386 598.598 97.5284 596.689 97.5284ZM630.036 97L622.331 70.8182H627.598L632.729 90.0455H632.985L638.132 70.8182H643.399L648.513 89.9602H648.769L653.865 70.8182H659.132L651.445 97H646.246L640.928 78.0966H640.536L635.218 97H630.036ZM673.24 97.5284C670.786 97.5284 668.644 96.9659 666.814 95.8409C664.985 94.7159 663.564 93.142 662.553 91.1193C661.542 89.0966 661.036 86.733 661.036 84.0284C661.036 81.3125 661.542 78.9375 662.553 76.9034C663.564 74.8693 664.985 73.2898 666.814 72.1648C668.644 71.0398 670.786 70.4773 673.24 70.4773C675.695 70.4773 677.837 71.0398 679.667 72.1648C681.496 73.2898 682.917 74.8693 683.928 76.9034C684.939 78.9375 685.445 81.3125 685.445 84.0284C685.445 86.733 684.939 89.0966 683.928 91.1193C682.917 93.142 681.496 94.7159 679.667 95.8409C677.837 96.9659 675.695 97.5284 673.24 97.5284ZM673.258 93.25C674.848 93.25 676.167 92.8295 677.212 91.9886C678.258 91.1477 679.03 90.0284 679.53 88.6307C680.042 87.233 680.297 85.6932 680.297 84.0114C680.297 82.3409 680.042 80.8068 679.53 79.4091C679.03 78 678.258 76.8693 677.212 76.017C676.167 75.1648 674.848 74.7386 673.258 74.7386C671.655 74.7386 670.326 75.1648 669.269 76.017C668.223 76.8693 667.445 78 666.934 79.4091C666.434 80.8068 666.184 82.3409 666.184 84.0114C666.184 85.6932 666.434 87.233 666.934 88.6307C667.445 90.0284 668.223 91.1477 669.269 91.9886C670.326 92.8295 671.655 93.25 673.258 93.25ZM690.174 97V70.8182H695.1V74.9773H695.373C695.85 73.5682 696.691 72.4602 697.896 71.6534C699.111 70.8352 700.486 70.4261 702.021 70.4261C702.339 70.4261 702.714 70.4375 703.146 70.4602C703.589 70.483 703.935 70.5114 704.185 70.5455V75.4205C703.981 75.3636 703.617 75.3011 703.094 75.233C702.572 75.1534 702.049 75.1136 701.526 75.1136C700.322 75.1136 699.248 75.3693 698.305 75.8807C697.373 76.3807 696.634 77.0795 696.089 77.9773C695.543 78.8636 695.271 79.875 695.271 81.0114V97H690.174ZM712.323 88.1193L712.289 81.8977H713.176L723.607 70.8182H729.71L717.812 83.4318H717.011L712.323 88.1193ZM707.636 97V62.0909H712.732V97H707.636ZM724.17 97L714.795 84.5568L718.306 80.9943L730.426 97H724.17ZM733.395 97V70.8182H738.491V97H733.395ZM735.968 66.7784C735.082 66.7784 734.321 66.483 733.684 65.892C733.059 65.2898 732.747 64.5739 732.747 63.7443C732.747 62.9034 733.059 62.1875 733.684 61.5966C734.321 60.9943 735.082 60.6932 735.968 60.6932C736.855 60.6932 737.61 60.9943 738.235 61.5966C738.872 62.1875 739.19 62.9034 739.19 63.7443C739.19 64.5739 738.872 65.2898 738.235 65.892C737.61 66.483 736.855 66.7784 735.968 66.7784ZM749.484 81.4545V97H744.388V70.8182H749.28V75.0795H749.604C750.206 73.6932 751.149 72.5795 752.433 71.7386C753.729 70.8977 755.359 70.4773 757.325 70.4773C759.109 70.4773 760.672 70.8523 762.013 71.6023C763.354 72.3409 764.393 73.4432 765.132 74.9091C765.871 76.375 766.24 78.1875 766.24 80.3466V97H761.143V80.9602C761.143 79.0625 760.649 77.5795 759.66 76.5114C758.672 75.4318 757.314 74.892 755.587 74.892C754.405 74.892 753.354 75.1477 752.433 75.6591C751.524 76.1705 750.802 76.9205 750.268 77.9091C749.746 78.8864 749.484 80.0682 749.484 81.4545ZM783.092 107.364C781.013 107.364 779.223 107.091 777.723 106.545C776.235 106 775.019 105.278 774.075 104.381C773.132 103.483 772.428 102.5 771.962 101.432L776.342 99.625C776.649 100.125 777.058 100.653 777.57 101.21C778.092 101.778 778.797 102.261 779.683 102.659C780.581 103.057 781.735 103.256 783.144 103.256C785.075 103.256 786.672 102.784 787.933 101.841C789.195 100.909 789.825 99.4205 789.825 97.375V92.2273H789.502C789.195 92.7841 788.752 93.4034 788.172 94.0852C787.604 94.767 786.82 95.358 785.82 95.858C784.82 96.358 783.519 96.608 781.916 96.608C779.848 96.608 777.985 96.125 776.325 95.1591C774.678 94.1818 773.371 92.7443 772.405 90.8466C771.45 88.9375 770.973 86.5909 770.973 83.8068C770.973 81.0227 771.445 78.6364 772.388 76.6477C773.342 74.6591 774.649 73.1364 776.308 72.0795C777.967 71.0114 779.848 70.4773 781.95 70.4773C783.575 70.4773 784.888 70.75 785.888 71.2955C786.888 71.8295 787.666 72.4545 788.223 73.1705C788.791 73.8864 789.229 74.517 789.536 75.0625H789.911V70.8182H794.905V97.5795C794.905 99.8295 794.382 101.676 793.337 103.119C792.291 104.563 790.877 105.631 789.092 106.324C787.32 107.017 785.32 107.364 783.092 107.364ZM783.041 92.3807C784.507 92.3807 785.746 92.0398 786.757 91.358C787.78 90.6648 788.553 89.6761 789.075 88.392C789.61 87.0966 789.877 85.5455 789.877 83.7386C789.877 81.9773 789.615 80.4261 789.092 79.0852C788.57 77.7443 787.803 76.6989 786.791 75.9489C785.78 75.1875 784.53 74.8068 783.041 74.8068C781.507 74.8068 780.229 75.2045 779.206 76C778.183 76.7841 777.411 77.8523 776.888 79.2045C776.377 80.5568 776.121 82.0682 776.121 83.7386C776.121 85.4545 776.382 86.9602 776.905 88.2557C777.428 89.5511 778.2 90.5625 779.223 91.2898C780.257 92.017 781.53 92.3807 783.041 92.3807ZM818.199 97L810.495 70.8182H815.762L820.893 90.0455H821.148L826.296 70.8182H831.563L836.677 89.9602H836.932L842.029 70.8182H847.296L839.609 97H834.41L829.091 78.0966H828.699L823.381 97H818.199ZM851.173 97V70.8182H856.269V97H851.173ZM853.747 66.7784C852.86 66.7784 852.099 66.483 851.462 65.892C850.837 65.2898 850.525 64.5739 850.525 63.7443C850.525 62.9034 850.837 62.1875 851.462 61.5966C852.099 60.9943 852.86 60.6932 853.747 60.6932C854.633 60.6932 855.389 60.9943 856.014 61.5966C856.65 62.1875 856.968 62.9034 856.968 63.7443C856.968 64.5739 856.65 65.2898 856.014 65.892C855.389 66.483 854.633 66.7784 853.747 66.7784ZM874.387 70.8182V74.9091H860.086V70.8182H874.387ZM863.922 64.5455H869.018V89.3125C869.018 90.3011 869.166 91.0455 869.461 91.5455C869.757 92.0341 870.137 92.3693 870.603 92.5511C871.081 92.7216 871.598 92.8068 872.154 92.8068C872.564 92.8068 872.922 92.7784 873.228 92.7216C873.535 92.6648 873.774 92.6193 873.944 92.5852L874.865 96.7955C874.569 96.9091 874.149 97.0227 873.603 97.1364C873.058 97.2614 872.376 97.3295 871.558 97.3409C870.217 97.3636 868.967 97.125 867.808 96.625C866.649 96.125 865.711 95.3523 864.995 94.3068C864.279 93.2614 863.922 91.9489 863.922 90.3693V64.5455ZM884.724 81.4545V97H879.628V62.0909H884.656V75.0795H884.98C885.594 73.6705 886.531 72.5511 887.792 71.7216C889.054 70.892 890.702 70.4773 892.736 70.4773C894.531 70.4773 896.099 70.8466 897.44 71.5852C898.792 72.3239 899.838 73.4261 900.577 74.892C901.327 76.3466 901.702 78.1648 901.702 80.3466V97H896.605V80.9602C896.605 79.0398 896.111 77.5511 895.122 76.4943C894.133 75.4261 892.758 74.892 890.997 74.892C889.792 74.892 888.713 75.1477 887.758 75.6591C886.815 76.1705 886.071 76.9205 885.525 77.9091C884.991 78.8864 884.724 80.0682 884.724 81.4545ZM918.571 97.5284C916.117 97.5284 913.975 96.9659 912.145 95.8409C910.315 94.7159 908.895 93.142 907.884 91.1193C906.872 89.0966 906.367 86.733 906.367 84.0284C906.367 81.3125 906.872 78.9375 907.884 76.9034C908.895 74.8693 910.315 73.2898 912.145 72.1648C913.975 71.0398 916.117 70.4773 918.571 70.4773C921.026 70.4773 923.168 71.0398 924.997 72.1648C926.827 73.2898 928.247 74.8693 929.259 76.9034C930.27 78.9375 930.776 81.3125 930.776 84.0284C930.776 86.733 930.27 89.0966 929.259 91.1193C928.247 93.142 926.827 94.7159 924.997 95.8409C923.168 96.9659 921.026 97.5284 918.571 97.5284ZM918.588 93.25C920.179 93.25 921.497 92.8295 922.543 91.9886C923.588 91.1477 924.361 90.0284 924.861 88.6307C925.372 87.233 925.628 85.6932 925.628 84.0114C925.628 82.3409 925.372 80.8068 924.861 79.4091C924.361 78 923.588 76.8693 922.543 76.017C921.497 75.1648 920.179 74.7386 918.588 74.7386C916.986 74.7386 915.656 75.1648 914.6 76.017C913.554 76.8693 912.776 78 912.264 79.4091C911.764 80.8068 911.514 82.3409 911.514 84.0114C911.514 85.6932 911.764 87.233 912.264 88.6307C912.776 90.0284 913.554 91.1477 914.6 91.9886C915.656 92.8295 916.986 93.25 918.588 93.25ZM952.09 86.142V70.8182H957.203V97H952.192V92.4659H951.919C951.317 93.8636 950.351 95.0284 949.022 95.9602C947.703 96.8807 946.061 97.3409 944.095 97.3409C942.414 97.3409 940.925 96.9716 939.63 96.233C938.345 95.483 937.334 94.375 936.595 92.9091C935.868 91.4432 935.505 89.6307 935.505 87.4716V70.8182H940.601V86.858C940.601 88.642 941.095 90.0625 942.084 91.1193C943.073 92.1761 944.357 92.7045 945.936 92.7045C946.891 92.7045 947.84 92.4659 948.783 91.9886C949.738 91.5114 950.527 90.7898 951.152 89.8239C951.789 88.858 952.101 87.6307 952.09 86.142ZM975.313 70.8182V74.9091H961.012V70.8182H975.313ZM964.847 64.5455H969.944V89.3125C969.944 90.3011 970.091 91.0455 970.387 91.5455C970.682 92.0341 971.063 92.3693 971.529 92.5511C972.006 92.7216 972.523 92.8068 973.08 92.8068C973.489 92.8068 973.847 92.7784 974.154 92.7216C974.461 92.6648 974.699 92.6193 974.87 92.5852L975.79 96.7955C975.495 96.9091 975.074 97.0227 974.529 97.1364C973.983 97.2614 973.302 97.3295 972.483 97.3409C971.143 97.3636 969.893 97.125 968.733 96.625C967.574 96.125 966.637 95.3523 965.921 94.3068C965.205 93.2614 964.847 91.9489 964.847 90.3693V64.5455ZM991.734 97V70.8182H996.831V97H991.734ZM994.308 66.7784C993.421 66.7784 992.66 66.483 992.024 65.892C991.399 65.2898 991.086 64.5739 991.086 63.7443C991.086 62.9034 991.399 62.1875 992.024 61.5966C992.66 60.9943 993.421 60.6932 994.308 60.6932C995.194 60.6932 995.95 60.9943 996.575 61.5966C997.211 62.1875 997.529 62.9034 997.529 63.7443C997.529 64.5739 997.211 65.2898 996.575 65.892C995.95 66.483 995.194 66.7784 994.308 66.7784ZM1014.95 70.8182V74.9091H1000.65V70.8182H1014.95ZM1004.48 64.5455H1009.58V89.3125C1009.58 90.3011 1009.73 91.0455 1010.02 91.5455C1010.32 92.0341 1010.7 92.3693 1011.16 92.5511C1011.64 92.7216 1012.16 92.8068 1012.72 92.8068C1013.12 92.8068 1013.48 92.7784 1013.79 92.7216C1014.1 92.6648 1014.33 92.6193 1014.51 92.5852L1015.43 96.7955C1015.13 96.9091 1014.71 97.0227 1014.16 97.1364C1013.62 97.2614 1012.94 97.3295 1012.12 97.3409C1010.78 97.3636 1009.53 97.125 1008.37 96.625C1007.21 96.125 1006.27 95.3523 1005.56 94.3068C1004.84 93.2614 1004.48 91.9489 1004.48 90.3693V64.5455ZM1022.98 97.3239C1022.05 97.3239 1021.25 96.9943 1020.58 96.3352C1019.91 95.6648 1019.58 94.858 1019.58 93.9148C1019.58 92.983 1019.91 92.1875 1020.58 91.5284C1021.25 90.858 1022.05 90.5227 1022.98 90.5227C1023.92 90.5227 1024.72 90.858 1025.39 91.5284C1026.06 92.1875 1026.39 92.983 1026.39 93.9148C1026.39 94.5398 1026.23 95.1136 1025.92 95.6364C1025.61 96.1477 1025.2 96.5568 1024.69 96.8636C1024.18 97.1705 1023.61 97.3239 1022.98 97.3239Z" fill="#101828"/>
</svg>
